<svg xmlns="http://www.w3.org/2000/svg" width="39.267" height="38" viewBox="0 0 39.267 38">
  <g id="XMLID_806_" transform="translate(0 -10.262)">
    <g id="XMLID_1434_" transform="translate(8.76 11.036)">
      <rect id="XMLID_1457_" width="5.297" height="3.057" transform="translate(12.206 3.717)" fill="#d5f5fb"/>
      <path id="XMLID_1456_" d="M251.706,23.979h5.575a1.858,1.858,0,0,0,1.858-1.858h0a1.858,1.858,0,0,0-1.858-1.858h-5.575a1.858,1.858,0,0,0-1.858,1.858h0A1.858,1.858,0,0,0,251.706,23.979Z" transform="translate(-239.639 -20.262)" fill="#045c5d"/>
      <ellipse id="XMLID_1452_" cx="14.867" cy="14.839" rx="14.867" ry="14.839" transform="translate(0 6.773)" fill="#5ddef5"/>
      <circle id="XMLID_2618_" cx="11.237" cy="11.237" r="11.237" transform="translate(3.629 10.348)" fill="#fff"/>
      <circle id="XMLID_2592_" cx="1.632" cy="1.632" r="1.632" transform="translate(13.235 19.975)" fill="#ff838e"/>
    </g>
    <g id="XMLID_386_" transform="translate(0 10.262)">
      <path id="XMLID_389_" d="M39.191,31.091A15.7,15.7,0,0,0,34.73,21.6a15.365,15.365,0,0,0-7.576-4.194V15.442a2.631,2.631,0,0,0-.629-5.18H21a2.631,2.631,0,0,0-.629,5.18v1.97A15.364,15.364,0,0,0,12.821,21.6a15.654,15.654,0,0,0-1.3,1.49l-.058,0H5.995a.773.773,0,0,0,0,1.546h4.48a15.559,15.559,0,0,0-1.361,2.972H.767a.773.773,0,0,0,0,1.546H8.681A15.842,15.842,0,0,0,8.3,32.124H4.908a.773.773,0,0,0,0,1.546H8.324A15.815,15.815,0,0,0,8.8,36.642H3.835a.773.773,0,0,0,0,1.546H9.293a15.523,15.523,0,0,0,12.951,10q.76.076,1.52.075a15.439,15.439,0,0,0,8.455-2.519.777.777,0,0,0,.224-1.07.763.763,0,0,0-1.061-.226,13.931,13.931,0,0,1-17.476-1.852,14.17,14.17,0,0,1,0-19.9,13.894,13.894,0,0,1,19.74,0,14.22,14.22,0,0,1,1.847,17.6.777.777,0,0,0,.225,1.07.763.763,0,0,0,1.061-.227A15.769,15.769,0,0,0,39.191,31.091Zm-19.262-18.2A1.079,1.079,0,0,1,21,11.808h5.522a1.083,1.083,0,0,1,0,2.165H21A1.079,1.079,0,0,1,19.929,12.891Zm1.978,4.255V15.52H25.62v1.623A15.5,15.5,0,0,0,21.907,17.146Z" transform="translate(0 -10.262)"/>
      <path id="XMLID_391_" d="M436.544,425.5a.775.775,0,1,0,.547.227A.778.778,0,0,0,436.544,425.5Z" transform="translate(-402.405 -393.403)"/>
      <path id="XMLID_394_" d="M166.884,144.609A12.012,12.012,0,1,0,178.9,156.621,12.025,12.025,0,0,0,166.884,144.609Zm0,22.475a10.463,10.463,0,1,1,10.463-10.463A10.475,10.475,0,0,1,166.884,167.084Z" transform="translate(-143.257 -134.261)"/>
      <path id="XMLID_397_" d="M266.035,219.638l-3.835,3.835a2.4,2.4,0,0,0-2.126,0l-1.716-1.716a.774.774,0,1,0-1.1,1.095l1.716,1.716a2.406,2.406,0,1,0,4.316,0l3.723-3.723h0l.113-.112a.774.774,0,1,0-1.1-1.1Zm-4.9,6.85a.857.857,0,1,1,.857-.857A.858.858,0,0,1,261.137,226.488Z" transform="translate(-237.39 -203.247)"/>
      <path id="XMLID_398_" d="M399.147,289.86h-.717a.774.774,0,1,0,0,1.549h.717a.774.774,0,0,0,0-1.549Z" transform="translate(-367.175 -268.243)"/>
      <path id="XMLID_399_" d="M194.574,289.616h-.717a.774.774,0,1,0,0,1.549h.717a.774.774,0,0,0,0-1.549Z" transform="translate(-178.282 -268.018)"/>
      <path id="XMLID_400_" d="M300.9,185.085a.774.774,0,0,0,.774-.774v-.717a.774.774,0,1,0-1.549,0v.717A.774.774,0,0,0,300.9,185.085Z" transform="translate(-277.114 -169.478)"/>
      <path id="XMLID_424_" d="M300.653,387.393a.774.774,0,0,0-.774.774v.717a.774.774,0,1,0,1.549,0v-.717A.774.774,0,0,0,300.653,387.393Z" transform="translate(-276.889 -358.236)"/>
      <path id="XMLID_425_" d="M.774,351.44a.774.774,0,1,0,.547,1.322.774.774,0,0,0-.547-1.322Z" transform="translate(0 -325.062)"/>
    </g>
  </g>
</svg>
