<svg xmlns="http://www.w3.org/2000/svg" width="35" height="38" viewBox="0 0 35 38">
  <g id="Group_62845" data-name="Group 62845" transform="translate(-2.5 -1.523)">
    <g id="Color" transform="translate(3.157 2.149)">
      <path id="Path_108696" data-name="Path 108696" d="M26.907,29.88a15.079,15.079,0,0,1-17.9,0A9.051,9.051,0,0,1,17.959,21,9.051,9.051,0,0,1,26.907,29.88Z" transform="translate(-1.115 3.895)" fill="#fa7878"/>
      <circle id="Ellipse_2628" data-name="Ellipse 2628" cx="4.597" cy="4.597" r="4.597" transform="translate(12.246 15.727)" fill="#fa7878"/>
      <g id="Group_62843" data-name="Group 62843">
        <path id="Path_108697" data-name="Path 108697" d="M22.743,8.134,20.852,9.973l.775,4.519-4.059-2.128-4.059,2.128.775-4.519L12.392,8.134,11,6.768l4.532-.657L17.568,2,19.6,6.111l4.532.657Z" transform="translate(-0.725 -2)" fill="#ffc943"/>
        <path id="Path_108698" data-name="Path 108698" d="M10.881,12.384,11.5,16,8.254,14.289,5.5,15.733v.013L5.01,16l.617-3.612L3,9.822l3.625-.539L8.254,6,9.883,9.284l.46.066,3.166.473Z" transform="translate(-3 -0.746)" fill="#ffc943"/>
        <path id="Path_108699" data-name="Path 108699" d="M28.881,12.384,29.5,16l-.486-.25v-.013l-2.758-1.445L23.01,16l.617-3.612L21,9.822l3.166-.473.46-.066L26.254,6l1.629,3.284,3.625.539Z" transform="translate(2.178 -0.746)" fill="#ffc943"/>
      </g>
    </g>
    <g id="Outline" transform="translate(2.5 1.523)">
      <g id="Group_62844" data-name="Group 62844">
        <path id="Path_108700" data-name="Path 108700" d="M34.9,16.136a.656.656,0,0,0-.53.757,15.348,15.348,0,0,1,.211,2.518A15.151,15.151,0,0,1,29.267,31a9.727,9.727,0,0,0-6.715-7.875,5.18,5.18,0,1,0-5.731,0A9.727,9.727,0,0,0,10.106,31a15.151,15.151,0,0,1-5.311-11.59,15.348,15.348,0,0,1,.211-2.518.656.656,0,0,0-.53-.757.645.645,0,0,0-.747.539A16.728,16.728,0,0,0,3.5,19.411,16.271,16.271,0,0,0,17,35.6a.6.6,0,0,0,.106.009.657.657,0,0,0,.1-1.3,14.711,14.711,0,0,1-5.906-2.39,8.392,8.392,0,0,1,16.756,0,14.711,14.711,0,0,1-5.906,2.39.657.657,0,0,0,.1,1.3.6.6,0,0,0,.106-.009,16.271,16.271,0,0,0,13.5-16.187,16.728,16.728,0,0,0-.229-2.736.646.646,0,0,0-.747-.539ZM15.8,18.754a3.885,3.885,0,1,1,3.885,3.941A3.917,3.917,0,0,1,15.8,18.754Z" transform="translate(-2.186 2.169)" fill-rule="evenodd"/>
        <path id="Path_108701" data-name="Path 108701" d="M24.917,6.719a.657.657,0,0,0-.53-.448l-4.2-.609-1.877-3.8a.685.685,0,0,0-1.178,0l-1.877,3.8-4.2.609A.658.658,0,0,0,10.7,7.392l3.037,2.959-.717,4.179a.657.657,0,0,0,.953.693l3.753-1.974,3.753,1.974a.649.649,0,0,0,.306.076.657.657,0,0,0,.647-.768l-.717-4.179,3.037-2.959a.658.658,0,0,0,.166-.673ZM20.55,9.651a.659.659,0,0,0-.189.582l.55,3.208-2.881-1.515a.656.656,0,0,0-.612,0l-2.881,1.515.55-3.208a.659.659,0,0,0-.189-.582L12.568,7.381l3.221-.468a.659.659,0,0,0,.495-.359l1.441-2.92,1.441,2.92a.659.659,0,0,0,.495.359l3.221.468L20.55,9.651Z" transform="translate(-0.225 -1.523)" fill-rule="evenodd"/>
        <path id="Path_108702" data-name="Path 108702" d="M4.517,16.032a.657.657,0,0,0,.953.693l2.941-1.547,2.941,1.547a.649.649,0,0,0,.306.076.657.657,0,0,0,.647-.768l-.562-3.275,2.38-2.319a.658.658,0,0,0-.364-1.121l-3.289-.477L9,5.858a.685.685,0,0,0-1.178,0L6.352,8.839l-3.289.477A.658.658,0,0,0,2.7,10.438l2.38,2.319Zm.052-5.606,2.313-.336a.659.659,0,0,0,.495-.359l1.035-2.1,1.035,2.1a.659.659,0,0,0,.495.359l2.313.336-1.674,1.63a.659.659,0,0,0-.189.582l.4,2.3L8.717,13.855a.656.656,0,0,0-.612,0L6.036,14.943l.4-2.3a.659.659,0,0,0-.189-.582l-1.674-1.63Z" transform="translate(-2.5 -0.269)" fill-rule="evenodd"/>
        <path id="Path_108703" data-name="Path 108703" d="M31.76,9.317l-3.289-.477L27,5.858a.685.685,0,0,0-1.178,0L24.352,8.839l-3.289.477a.658.658,0,0,0-.364,1.121l2.38,2.319-.562,3.275a.657.657,0,0,0,.953.693l2.941-1.547,2.941,1.547a.649.649,0,0,0,.306.076.657.657,0,0,0,.647-.768l-.562-3.275,2.38-2.319a.658.658,0,0,0-.364-1.121Zm-3.18,2.74a.659.659,0,0,0-.189.582l.4,2.3-2.069-1.088a.656.656,0,0,0-.612,0l-2.069,1.088.4-2.3a.659.659,0,0,0-.189-.582l-1.674-1.63,2.313-.336a.659.659,0,0,0,.495-.359l1.035-2.1,1.035,2.1a.659.659,0,0,0,.495.359l2.313.336Z" transform="translate(2.678 -0.269)" fill-rule="evenodd"/>
      </g>
      <circle id="Ellipse_2629" data-name="Ellipse 2629" cx="0.657" cy="0.657" r="0.657" transform="translate(16.843 36.686)"/>
    </g>
  </g>
</svg>
