<svg xmlns="http://www.w3.org/2000/svg" width="37" height="38" viewBox="0 0 37 38">
  <g id="Group_62842" data-name="Group 62842" transform="translate(-91.82 -5)">
    <path id="Path_108679" data-name="Path 108679" d="M99,90.744l17.7,19.865,17.7-19.865-5.9-8.621H104.9Z" transform="translate(-6.38 -68.387)" fill="#fcdb35" fill-rule="evenodd"/>
    <path id="Path_108680" data-name="Path 108680" d="M308.337,90.744l5.857-8.621,5.857,8.621Z" transform="translate(-192.035 -68.46)" fill="#43f043" fill-rule="evenodd"/>
    <path id="Path_108681" data-name="Path 108681" d="M346.029,84.535l1.639-2.412,5.857,8.621h-3.278Z" transform="translate(-225.508 -68.46)" fill="#2dd62d" fill-rule="evenodd"/>
    <path id="Path_108682" data-name="Path 108682" d="M99,90.744l5.857-8.621,5.857,8.621Z" transform="translate(-6.38 -68.46)" fill="#43f043" fill-rule="evenodd"/>
    <path id="Path_108683" data-name="Path 108683" d="M151.337,82.123l5.857,8.621,5.857-8.621Z" transform="translate(-52.79 -68.46)" fill="#adffad" fill-rule="evenodd"/>
    <path id="Path_108684" data-name="Path 108684" d="M151.337,82.123l1.639,2.412h8.437l1.639-2.412Z" transform="translate(-52.79 -68.466)" fill="#43f043" fill-rule="evenodd"/>
    <path id="Path_108685" data-name="Path 108685" d="M203.67,90.744l5.857-8.621,5.857,8.621Z" transform="translate(-99.207 -68.46)" fill="#2dd62d" fill-rule="evenodd"/>
    <path id="Path_108686" data-name="Path 108686" d="M256,82.123l5.857,8.621,5.857-8.621Z" transform="translate(-145.625 -68.46)" fill="#adffad" fill-rule="evenodd"/>
    <path id="Path_108687" data-name="Path 108687" d="M256,82.123l1.639,2.412h8.437l1.639-2.412Z" transform="translate(-145.625 -68.466)" fill="#43f043" fill-rule="evenodd"/>
    <path id="Path_108688" data-name="Path 108688" d="M261.86,159.145h11.715L256,179.01Z" transform="translate(-145.559 -136.789)" fill="#adffad" fill-rule="evenodd"/>
    <path id="Path_108689" data-name="Path 108689" d="M110.718,159.145H99l17.572,19.865Z" transform="translate(-6.379 -136.789)" fill="#adffad" fill-rule="evenodd"/>
    <path id="Path_108690" data-name="Path 108690" d="M203.67,159.145h11.715l-5.857,19.865Z" transform="translate(-99.207 -136.789)" fill="#43f043" fill-rule="evenodd"/>
    <path id="Path_108691" data-name="Path 108691" d="M256,179.01,270.3,159.145h3.278Z" transform="translate(-145.559 -136.789)" fill="#88f288" fill-rule="evenodd"/>
    <path id="Path_108692" data-name="Path 108692" d="M106.5,84.535l-1.639-2.412L99,90.744h3.277Z" transform="translate(-6.379 -68.46)" fill="#2dd62d" fill-rule="evenodd"/>
    <path id="Path_108693" data-name="Path 108693" d="M116.575,179.01,102.28,159.145H99Z" transform="translate(-6.379 -136.789)" fill="#88f288" fill-rule="evenodd"/>
    <path id="Path_108694" data-name="Path 108694" d="M102.151,7.633a.782.782,0,0,1,.288-1.073.79.79,0,0,1,1.078.287l1.625,2.8a.785.785,0,0,1-.289,1.073.79.79,0,0,1-1.078-.287l-1.623-2.8Zm7.381,1.388V5.786a.789.789,0,0,1,1.577,0V9.021a.789.789,0,0,1-1.577,0Zm5.967.628,1.625-2.8a.788.788,0,0,1,1.365.786l-1.624,2.8A.788.788,0,0,1,115.5,9.65ZM103.827,23.083H94.361l14.2,15.967Zm-.9-1.571H94.1l4.412-6.461Zm1.491-.612,4.412-6.461H100Zm11.807,0-4.413-6.461h8.827L116.223,20.9Zm1.491.612h8.826l-4.413-6.461Zm-.9,1.571L112.08,39.05l14.2-15.967h-9.466Zm-10.907-1.571,4.413-6.462,4.414,6.462h-8.826Zm9.261,1.571h-9.7L110.32,39.44Zm-5.439,19.653a.791.791,0,0,0,1.181,0l17.711-19.918a.785.785,0,0,0,.062-.963l-5.9-8.644a.79.79,0,0,0-.651-.343H98.512a.79.79,0,0,0-.651.343l-5.9,8.644a.785.785,0,0,0,.062.963Z" transform="translate(0)" fill-rule="evenodd"/>
  </g>
</svg>
