<svg xmlns="http://www.w3.org/2000/svg" width="34" height="37.995" viewBox="0 0 34 37.995">
  <g id="Layer_55" transform="translate(-69.8)">
    <g id="Group_62856" data-name="Group 62856" transform="translate(69.8)">
      <path id="Path_108735" data-name="Path 108735" d="M162.464,2.5h-9.511a.651.651,0,0,0-.653.653V7.873h1.186a1.659,1.659,0,0,1,.121,3.315H152.3V15.4a.651.651,0,0,0,.653.653h4.138v1.258a1.659,1.659,0,1,0,3.315.121V16.052H165.2a.651.651,0,0,0,.653-.653V5.888A3.4,3.4,0,0,0,162.464,2.5Z" transform="translate(-132.482 -1.895)" fill="#fc657e"/>
      <path id="Path_108736" data-name="Path 108736" d="M87.114,31.673H85.928V26.953a.651.651,0,0,0-.653-.653H75.788A3.383,3.383,0,0,0,72.4,29.688v10.14h5.3V38.57a1.659,1.659,0,0,1,3.315-.121v1.379h4.937v-4.84h1.258a1.673,1.673,0,0,0,1.67-1.67V33.27a1.729,1.729,0,0,0-1.767-1.6Z" transform="translate(-71.771 -19.935)" fill="#f5c84c"/>
      <path id="Path_108737" data-name="Path 108737" d="M131.646,82.3h-4.792v1.258a1.659,1.659,0,0,1-3.316.121V82.3h-4.792v4.864h-1.331a1.659,1.659,0,0,0-.121,3.315h1.452v5.373h4.4a1.49,1.49,0,0,1,1.258.678l1.912,2.856a1,1,0,0,0,1.379.218.976.976,0,0,0,.411-.8v-2.3a.641.641,0,0,1,.629-.629h.169a3.383,3.383,0,0,0,3.388-3.388V82.953A.651.651,0,0,0,131.646,82.3Z" transform="translate(-104.683 -62.383)" fill="#70d6f9"/>
      <path id="Path_108738" data-name="Path 108738" d="M84.521,77.839h1.331V72.975H80.915V71.716A1.659,1.659,0,0,0,77.6,71.6v1.379H72.3v10.14A3.383,3.383,0,0,0,75.688,86.5a.641.641,0,0,1,.629.629v2.3a.988.988,0,0,0,1.791.581l1.912-2.856a1.55,1.55,0,0,1,1.258-.678h4.574V81.106h-1.4a1.673,1.673,0,0,1-1.67-1.67v-.048a1.737,1.737,0,0,1,1.742-1.549Z" transform="translate(-71.695 -53.058)" fill="#87d147"/>
      <path id="Path_108751" data-name="Path 108751" d="M160.569,0h-9.511A1.25,1.25,0,0,0,149.8,1.258V5.978a.6.6,0,0,0,.605.605h1.186A1.076,1.076,0,0,1,152.7,7.6a1.054,1.054,0,0,1-1.016,1.089h-1.283a.6.6,0,0,0-.605.605V13.5a1.25,1.25,0,0,0,1.258,1.258h3.533v.653a2.317,2.317,0,0,0,2.2,2.323h.073a2.272,2.272,0,0,0,2.275-2.275v-.726h4.187a1.25,1.25,0,0,0,1.258-1.258V3.993A4.034,4.034,0,0,0,160.569,0Zm2.783,13.5a.052.052,0,0,1-.048.048h-4.792a.6.6,0,0,0-.605.605v1.331a1.059,1.059,0,0,1-1.065,1.065h-.024A1.091,1.091,0,0,1,155.8,15.44V14.182a.6.6,0,0,0-.605-.605h-4.138a.052.052,0,0,1-.048-.048V9.9h.653a2.272,2.272,0,0,0,2.275-2.275V7.551a2.333,2.333,0,0,0-2.323-2.2h-.581V1.234a.052.052,0,0,1,.048-.048h9.487a2.783,2.783,0,0,1,2.783,2.783Z" transform="translate(-130.587)"/>
      <path id="Path_108752" data-name="Path 108752" d="M85.219,29.173h-.581V25.058A1.25,1.25,0,0,0,83.38,23.8H73.893A4,4,0,0,0,69.9,27.793v10.14a.6.6,0,0,0,.605.605h5.3a.6.6,0,0,0,.605-.605V36.675a1.076,1.076,0,0,1,1.016-1.113,1.142,1.142,0,0,1,.774.29,1.062,1.062,0,0,1,.315.75v1.331a.6.6,0,0,0,.605.605h4.937a.6.6,0,0,0,.605-.605V33.7h.653a2.272,2.272,0,0,0,2.275-2.275v-.073a2.356,2.356,0,0,0-2.372-2.178Zm.823,2.977a1.062,1.062,0,0,1-.75.315H84.033a.6.6,0,0,0-.605.605v4.259H79.7V36.6a2.272,2.272,0,0,0-2.275-2.275h-.073a2.333,2.333,0,0,0-2.2,2.323V37.3H71.086V27.793a2.783,2.783,0,0,1,2.783-2.783h9.487a.052.052,0,0,1,.048.048v4.719a.6.6,0,0,0,.605.605h1.186A1.076,1.076,0,0,1,86.308,31.4a.8.8,0,0,1-.266.75Z" transform="translate(-69.876 -18.04)"/>
      <path id="Path_108753" data-name="Path 108753" d="M129.748,79.8h-4.792a.6.6,0,0,0-.605.605v1.258a1.076,1.076,0,0,1-1.016,1.113,1.054,1.054,0,0,1-1.089-1.016V80.405a.6.6,0,0,0-.605-.605h-4.792a.6.6,0,0,0-.605.605v4.259h-.726a2.317,2.317,0,0,0-2.323,2.2,2.237,2.237,0,0,0,2.2,2.323h.871v4.768a.6.6,0,0,0,.605.605h4.4a.929.929,0,0,1,.75.387l1.912,2.856a.024.024,0,0,0,.024.024,1.571,1.571,0,0,0,1.283.653,1.842,1.842,0,0,0,.508-.073,1.561,1.561,0,0,0,1.089-1.525v-2.3c0-.024,0-.024.024-.024h.169a4,4,0,0,0,3.993-3.993V81.058A1.286,1.286,0,0,0,129.748,79.8Zm.048,10.745a2.783,2.783,0,0,1-2.783,2.783h-.169a1.239,1.239,0,0,0-1.234,1.234v2.3a.382.382,0,0,1-.387.387.39.39,0,0,1-.315-.145l-1.888-2.831a2.106,2.106,0,0,0-1.742-.944h-3.8V88.561a.6.6,0,0,0-.605-.605h-1.4a1.074,1.074,0,0,1-1.065-1.065v-.024a1.091,1.091,0,0,1,1.113-1.016h1.331a.6.6,0,0,0,.605-.605V81.01h3.582v.726a2.272,2.272,0,0,0,2.275,2.275h.073a2.333,2.333,0,0,0,2.2-2.323v-.653h4.187a.052.052,0,0,1,.048.048Z" transform="translate(-102.786 -60.488)"/>
      <path id="Path_108754" data-name="Path 108754" d="M82.626,76.546h1.331a.6.6,0,0,0,.605-.605V71.076a.6.6,0,0,0-.605-.605H79.625v-.653a2.317,2.317,0,0,0-2.2-2.323A2.237,2.237,0,0,0,75.1,69.7v.8H70.405a.6.6,0,0,0-.605.605v10.14a4,4,0,0,0,3.993,3.993c.024,0,.024,0,.024.024v2.3a1.592,1.592,0,0,0,1.089,1.525,1.843,1.843,0,0,0,.508.073A1.6,1.6,0,0,0,76.7,88.5a.024.024,0,0,1,.024-.024l1.912-2.856a.9.9,0,0,1,.75-.387h4.574a.6.6,0,0,0,.605-.605V79.256a.6.6,0,0,0-.605-.605h-1.4a1.074,1.074,0,0,1-1.065-1.065v-.024a1.13,1.13,0,0,1,1.137-1.016Zm-1.694,2.638a2.291,2.291,0,0,0,1.621.678h.8v4.163H79.383a2.048,2.048,0,0,0-1.742.944L75.753,87.8a.382.382,0,0,1-.532.073.39.39,0,0,1-.145-.315v-2.3a1.239,1.239,0,0,0-1.234-1.234,2.783,2.783,0,0,1-2.783-2.783V71.681h4.695a.6.6,0,0,0,.605-.605V69.745a1.062,1.062,0,0,1,.315-.75,1,1,0,0,1,.774-.29,1.091,1.091,0,0,1,1.016,1.113v1.258a.6.6,0,0,0,.605.605H83.4v3.654h-.726a2.317,2.317,0,0,0-2.323,2.2A2.106,2.106,0,0,0,80.932,79.184Z" transform="translate(-69.8 -51.159)"/>
    </g>
  </g>
</svg>
