<svg id="Group_50286" data-name="Group 50286" xmlns="http://www.w3.org/2000/svg" xmlns:xlink="http://www.w3.org/1999/xlink" width="472.923" height="236.619" viewBox="0 0 472.923 236.619">
  <defs>
    <clipPath id="clip-path">
      <rect id="Rectangle_24117" data-name="Rectangle 24117" width="472.923" height="236.619" fill="#d5eaff"/>
    </clipPath>
  </defs>
  <g id="Group_50285" data-name="Group 50285" transform="translate(0 0)" clip-path="url(#clip-path)">
    <path id="Path_64278" data-name="Path 64278" d="M427.106,826.493l-.5-.864c.613-.335,1.222-.692,1.813-1.061l.557.833c-.607.38-1.235.747-1.865,1.092" transform="translate(-348.556 -678.684)" fill="#8b77e8"/>
    <path id="Path_64279" data-name="Path 64279" d="M189.725,522.567l-.65-.768a34.022,34.022,0,0,0,13.117-26.755c0-19.054-16.03-34.556-35.733-34.556-19.456,0-35.484,15.3-35.73,34.111l-1.026-.013a34.772,34.772,0,0,1,10.919-24.828A37.186,37.186,0,0,1,166.46,459.5c20.269,0,36.758,15.947,36.758,35.548a35,35,0,0,1-13.493,27.523" transform="translate(-105.975 -378.201)" fill="#0b437b"/>
    <path id="Path_64280" data-name="Path 64280" d="M181.9,764.15a37.033,37.033,0,0,1-33.3-20.471l.929-.422a36,36,0,0,0,32.369,19.9,37.17,37.17,0,0,0,7.189-.7l.205.972a38.264,38.264,0,0,1-7.394.719" transform="translate(-121.417 -611.758)" fill="#0b437b"/>
    <path id="Path_64281" data-name="Path 64281" d="M445.645,426.791c-1.085-.729-2.221-1.417-3.374-2.044l4.553-7.837c1.411.766,2.8,1.607,4.125,2.5Z" transform="translate(-361.359 -343.149)" fill="#d5eaff"/>
    <path id="Path_64282" data-name="Path 64282" d="M349.944,394.118a42.573,42.573,0,0,0-17.456-3.837l.075-8.99a52.068,52.068,0,0,1,21.347,4.7Z" transform="translate(-271.662 -313.831)" fill="#d5eaff"/>
    <path id="Path_64283" data-name="Path 64283" d="M296.829,391.59l-1.15-8.921q.794-.1,1.6-.168l.857,8.951q-.654.059-1.3.138" transform="translate(-241.586 -314.828)" fill="#d5eaff"/>
    <path id="Path_64284" data-name="Path 64284" d="M57.325,476.026a48.041,48.041,0,0,1,2.238-49.649A50.674,50.674,0,0,1,80.53,408.484l4.012,8.11a40.542,40.542,0,0,0-23.77,36.464,39.41,39.41,0,0,0,4.78,18.782Z" transform="translate(-42.059 -336.214)" fill="#d5eaff"/>
    <path id="Path_64285" data-name="Path 64285" d="M116.938,813.024a50.528,50.528,0,0,1-6.141-6.345l7.316-5.546a41.437,41.437,0,0,0,5.031,5.2Z" transform="translate(-90.527 -659.395)" fill="#d5eaff"/>
    <path id="Path_64286" data-name="Path 64286" d="M165.83,852.125c-.755-.487-1.513-1-2.252-1.538l5.566-7.2c.606.438,1.226.862,1.843,1.259Z" transform="translate(-133.652 -694.172)" fill="#d5eaff"/>
    <path id="Path_64287" data-name="Path 64287" d="M232.589,533.184c0,15.1-12.662,27.35-28.281,27.35s-28.281-12.245-28.281-27.35,12.662-27.35,28.281-27.35,28.281,12.245,28.281,27.35" transform="translate(-143.824 -416.34)" fill="#f5cdb3"/>
    <path id="Path_64288" data-name="Path 64288" d="M341.5,564.584c-.436-.34-.894-.662-1.359-.957a17.683,17.683,0,0,0-9.517-2.757v-.992a18.732,18.732,0,0,1,10.081,2.92c.492.313.977.654,1.439,1.013Z" transform="translate(-270.139 -460.822)" fill="#fff"/>
    <path id="Path_64289" data-name="Path 64289" d="M402.006,614.972l-.813-.6a16.4,16.4,0,0,0,3.529-8.718c.048-.48.072-.987.072-1.511a16.435,16.435,0,0,0-4.647-11.425l.751-.675a17.406,17.406,0,0,1,4.921,12.1c0,.556-.026,1.1-.076,1.6a17.373,17.373,0,0,1-3.737,9.23" transform="translate(-326.942 -487.294)" fill="#fff"/>
    <path id="Path_64290" data-name="Path 64290" d="M343.361,598a12.512,12.512,0,0,0-12.735-11.871v-.992a13.52,13.52,0,0,1,13.76,12.827Z" transform="translate(-270.139 -481.617)" fill="#fff"/>
    <path id="Path_64291" data-name="Path 64291" d="M386.647,677.521l-.812-.607a12.06,12.06,0,0,0,2.488-5.576l1.014.154a13.042,13.042,0,0,1-2.69,6.028" transform="translate(-315.248 -552.564)" fill="#fff"/>
    <path id="Path_64292" data-name="Path 64292" d="M260.016,590.5h0a8.623,8.623,0,0,0,2.87,1.928h0a8.877,8.877,0,0,0,7.525-.364l2.575-1.369-5.4-9.491-2.879.994a5.064,5.064,0,0,1-3.609-.118,4.853,4.853,0,0,1-2.343-2.066l-4.452-7.832a4.613,4.613,0,0,1-.548-3.02h0a4.719,4.719,0,0,1,1.831-3.011l2.41-1.818-5.395-9.49-2.576,1.369a8.344,8.344,0,0,0-4.35,5.948,8.063,8.063,0,0,0,.145,3.378h0A55.569,55.569,0,0,0,260.016,590.5" transform="translate(-200.642 -456.68)" fill="#fff"/>
    <path id="Path_64293" data-name="Path 64293" d="M1748.354,708.033a7.8,7.8,0,0,1,2.874-5.2l-.6-.7a8.687,8.687,0,0,0-3.2,5.8,8.541,8.541,0,0,0,1.035,5.131l.834-.435a7.646,7.646,0,0,1-.936-4.6" transform="translate(-1427.695 -577.911)" fill="#fff"/>
    <path id="Path_64294" data-name="Path 64294" d="M1765.052,628.954a5.842,5.842,0,0,1-1.645.109,5.535,5.535,0,0,1-5.2-5.885l.327-4.028a5.562,5.562,0,0,1,5-5.008l.521-6.426a10.484,10.484,0,0,1,1.937-5.266,17.426,17.426,0,0,0-9.467,13.536,16.914,16.914,0,0,0,.036,4.025,8.219,8.219,0,0,0-1.139.773,7.8,7.8,0,0,0-2.874,5.2,7.649,7.649,0,0,0,.936,4.6,8.172,8.172,0,0,0,6.317,4.106,8.37,8.37,0,0,0,4.655-.852l.058-.029Z" transform="translate(-1431.886 -495.863)"/>
    <path id="Path_64295" data-name="Path 64295" d="M1950.739,634.755h0a8.452,8.452,0,0,1-3.243,5.742l.588.706a9.31,9.31,0,0,0,3.587-6.351,18.005,18.005,0,0,0-4.644-14.133l-.714.611a17.022,17.022,0,0,1,4.425,13.424" transform="translate(-1590.245 -510.901)" fill="#fff"/>
    <path id="Path_64296" data-name="Path 64296" d="M1834.8,591.03a18.633,18.633,0,0,0-5.289.2,8.78,8.78,0,0,0-5,7.155l-.52,6.409a5.492,5.492,0,0,1,4.242,5.726l-.327,4.028a5.351,5.351,0,0,1-1.372,3.155l.545.736a6.234,6.234,0,0,0,1.731-3.823l.145-1.79.159-1.96a16.258,16.258,0,0,0,5.182-1.9,20.947,20.947,0,0,1,10.542-2.805l-.536,11.409a8.964,8.964,0,0,0,3.249-1.592,8.454,8.454,0,0,0,3.243-5.743h0a17.026,17.026,0,0,0-4.425-13.424,17.884,17.884,0,0,0-2.828-2.494,18.134,18.134,0,0,0-4.754-2.418,18.6,18.6,0,0,0-3.993-.868" transform="translate(-1490.302 -486.38)"/>
    <path id="Path_64297" data-name="Path 64297" d="M1887.811,751.95l-6.027-.634a3.123,3.123,0,0,0,2.769,2.495,3.169,3.169,0,0,0,3.258-1.861" transform="translate(-1537.52 -618.392)" fill="#fff"/>
    <path id="Path_64298" data-name="Path 64298" d="M1821.409,748.622l.2.854a6.71,6.71,0,0,0,2.183-.907l-.531-.717a5.738,5.738,0,0,1-1.853.77" transform="translate(-1488.19 -615.54)" fill="#40327a"/>
    <path id="Path_64299" data-name="Path 64299" d="M1798.382,688.69a3.554,3.554,0,0,0,.836-2.013l.217-2.677a3.679,3.679,0,0,0-3.456-3.911,3.725,3.725,0,0,0-4.044,3.342l-.217,2.677a3.678,3.678,0,0,0,3.456,3.911,3.846,3.846,0,0,0,2.009-.393l1.81,2.443.531.717.723.975a7.391,7.391,0,0,0,4.837,2.87l3.109.459.233-1.471-3.11-.459a5.832,5.832,0,0,1-3.818-2.265l-.8-1.075-.545-.736Z" transform="translate(-1463.922 -559.757)" fill="#fff"/>
    <path id="Path_64300" data-name="Path 64300" d="M1788.952,592.464a5.561,5.561,0,0,0-5,5.008l-.327,4.028a5.534,5.534,0,0,0,5.2,5.885,5.842,5.842,0,0,0,1.644-.109l.053-.009a5.735,5.735,0,0,0,1.853-.77l-1.81-2.443a3.842,3.842,0,0,1-2.01.393,3.678,3.678,0,0,1-3.456-3.911l.217-2.677a3.724,3.724,0,0,1,4.044-3.342,3.678,3.678,0,0,1,3.456,3.911l-.217,2.677a3.553,3.553,0,0,1-.835,2.012l1.774,2.394a5.352,5.352,0,0,0,1.372-3.155l.327-4.028A5.492,5.492,0,0,0,1791,592.6l.52-6.409a8.779,8.779,0,0,1,4.995-7.155,9.27,9.27,0,0,1,9.282.666,18.126,18.126,0,0,1,4.755,2.418,10.788,10.788,0,0,0-1.513-2.236,11.359,11.359,0,0,0-17.626.887,10.476,10.476,0,0,0-1.937,5.265Z" transform="translate(-1457.308 -474.186)" fill="#b3a4f5"/>
    <path id="Path_64301" data-name="Path 64301" d="M1791.535,1076.51h0Z" transform="translate(-1463.781 -886.052)" fill="#f04f4f"/>
    <path id="Path_64302" data-name="Path 64302" d="M1926.85,853.317c-.038-.073-.077-.145-.118-.216.029.051.054.1.083.155.011.021.025.04.035.061" transform="translate(-1574.245 -702.169)" fill="#ff95a9"/>
    <path id="Path_64303" data-name="Path 64303" d="M1928.382,856.436c-.034-.084-.068-.168-.106-.25.026.056.047.115.071.172.011.026.025.051.035.077" transform="translate(-1575.506 -704.708)" fill="#ff95a9"/>
    <path id="Path_64304" data-name="Path 64304" d="M1914.908,840.454c-.058-.039-.118-.076-.178-.113.03.018.057.039.086.057s.063.037.092.057" transform="translate(-1564.439 -691.666)" fill="#ff95a9"/>
    <path id="Path_64305" data-name="Path 64305" d="M1922.948,847.608c-.042-.051-.083-.1-.126-.152.035.041.067.083.1.125l.024.027" transform="translate(-1571.05 -697.522)" fill="#ff95a9"/>
    <path id="Path_64306" data-name="Path 64306" d="M1911.693,838.579c-.07-.038-.143-.071-.215-.107.023.011.045.025.068.036.048.025.1.045.147.071" transform="translate(-1561.782 -690.128)" fill="#ff95a9"/>
    <path id="Path_64307" data-name="Path 64307" d="M1920.564,845.016c-.044-.044-.088-.088-.133-.131.036.034.069.07.1.1l.029.026" transform="translate(-1569.097 -695.406)" fill="#ff95a9"/>
    <path id="Path_64308" data-name="Path 64308" d="M1925.04,850.377c-.041-.061-.081-.123-.124-.182.033.046.062.094.094.141.01.014.021.027.03.041" transform="translate(-1572.762 -699.777)" fill="#ff95a9"/>
    <path id="Path_64309" data-name="Path 64309" d="M1898.121,834.646c-.047,0-.095,0-.142-.008l.02,0c.04,0,.082,0,.122.006" transform="translate(-1550.753 -686.972)" fill="#ff95a9"/>
    <path id="Path_64310" data-name="Path 64310" d="M1901.636,835.125c-.059-.012-.121-.019-.181-.029l.037.007c.048.008.1.012.144.022" transform="translate(-1553.592 -687.349)" fill="#ff95a9"/>
    <path id="Path_64311" data-name="Path 64311" d="M1917.881,842.619q-.073-.06-.149-.119c.034.026.065.054.1.081l.05.038" transform="translate(-1566.892 -693.443)" fill="#ff95a9"/>
    <path id="Path_64312" data-name="Path 64312" d="M1905.041,835.931c-.071-.021-.144-.038-.215-.057l.048.014c.055.015.113.026.168.043" transform="translate(-1556.346 -687.989)" fill="#ff95a9"/>
    <path id="Path_64313" data-name="Path 64313" d="M1895.093,834.493c-.047,0-.092-.007-.139-.007h0c.045,0,.088.006.133.007Z" transform="translate(-1548.279 -686.847)" fill="#ff95a9"/>
    <path id="Path_64314" data-name="Path 64314" d="M1908.379,837.071c-.075-.031-.154-.058-.23-.087l.055.023c.058.022.118.04.175.064" transform="translate(-1559.061 -688.903)" fill="#ff95a9"/>
    <path id="Path_64315" data-name="Path 64315" d="M1931.151,866.85c-.007-.091-.015-.183-.026-.273.011.091.019.182.026.273" transform="translate(-1577.835 -713.26)" fill="#ff95a9"/>
    <path id="Path_64316" data-name="Path 64316" d="M1929.6,859.66c.008.026.019.051.026.077-.012-.043-.021-.087-.035-.13s-.034-.1-.051-.147c.022.066.039.133.06.2" transform="translate(-1576.539 -707.403)" fill="#ff95a9"/>
    <path id="Path_64317" data-name="Path 64317" d="M1931.372,870.559c0-.045.007-.088.007-.133s-.006-.073-.006-.109c0,.081,0,.162,0,.243" transform="translate(-1578.036 -716.338)" fill="#ff95a9"/>
    <path id="Path_64318" data-name="Path 64318" d="M1930.5,862.931c.02.085.035.171.051.257,0,.013.006.026.008.039-.018-.1-.037-.2-.059-.3" transform="translate(-1577.323 -710.26)" fill="#ff95a9"/>
    <path id="Path_64319" data-name="Path 64319" d="M1728.39,1143.367q.037-.39.084-.778c.024-.2.051-.392.079-.587a31.5,31.5,0,0,1,2.717-9.083l-.926-.4a32.485,32.485,0,0,0-3.13,13.824h1.026c0-.5.016-1.009.041-1.512.009-.2.025-.4.039-.593.02-.29.042-.581.07-.87" transform="translate(-1411.228 -932.151)" fill="#fff"/>
    <path id="Path_64320" data-name="Path 64320" d="M1754,1097.386h16.346a6.77,6.77,0,0,0,.144-1.385v-6.793a27.827,27.827,0,0,0-3.076-12.7h-23.853a32.765,32.765,0,0,0-2.864,2.912l15.624,9.943,3.5,2.227,4.947-1.069v0a3.708,3.708,0,0,1,1.179-.065,3.5,3.5,0,0,1,3.173,3.834,3.564,3.564,0,0,1-3.964,3.068l-6.118-.656a2.6,2.6,0,0,1-.756-.21l-.006.011-5.268-2.277-17.162-7.412a31.494,31.494,0,0,0-2.717,9.083c-.027.2-.056.391-.079.587q-.047.389-.085.779c-.028.289-.051.58-.07.87-.013.2-.029.395-.038.593-.025.5-.041,1.006-.041,1.512v2.7h30.489a7.242,7.242,0,0,0,5.888-2.975H1754Z" transform="translate(-1415.809 -886.053)" fill="#7760db"/>
    <path id="Path_64321" data-name="Path 64321" d="M1864.941,1194.5H1848.6v2.584h29.264l.551-2.584Z" transform="translate(-1510.404 -983.169)" fill="#40327a"/>
    <path id="Path_64322" data-name="Path 64322" d="M2019.348,988.778h-2.49l-4.227,19.845-1.823,8.562-1.7,7.991-.551,2.584v0h2.49Z" transform="translate(-1641.098 -813.841)" fill="#fff"/>
    <path id="Path_64323" data-name="Path 64323" d="M2080.977,1014.417l5.358-25.143h-55.867v-.5l-8.3,38.984,57.827-8.717.257-1.211.5.1.729-3.417Zm-22.294-6.15a5.282,5.282,0,0,1-4.968,3.984,3.178,3.178,0,0,1-3.271-3.984,5.282,5.282,0,0,1,4.967-3.984,3.177,3.177,0,0,1,3.271,3.984" transform="translate(-1652.219 -813.842)" fill="#b3a4f5"/>
    <path id="Path_64324" data-name="Path 64324" d="M2079.991,1159.855l-57.826,8.717h56.5l1.19-5.6-.5-.1Z" transform="translate(-1652.219 -954.651)" fill="#ddd6ff"/>
    <path id="Path_64325" data-name="Path 64325" d="M2181.318,1076.418a5.282,5.282,0,0,0-4.968,3.984,3.178,3.178,0,0,0,3.271,3.984,5.282,5.282,0,0,0,4.969-3.984,3.178,3.178,0,0,0-3.271-3.984" transform="translate(-1778.125 -885.976)" fill="#fff"/>
    <path id="Path_64326" data-name="Path 64326" d="M2123.419,986.966l-5.358,25.143.5.1.5.1,5.612-26.335h-57.125v.992Z" transform="translate(-1689.304 -811.533)" fill="#8b77e8"/>
    <path id="Path_64327" data-name="Path 64327" d="M2335.38,1154.222l-.643,3.021.5.1.5.1.9-4.232-.5-.1-.5-.1Z" transform="translate(-1907.607 -949.018)" fill="#8b77e8"/>
    <path id="Path_64328" data-name="Path 64328" d="M1806.875,716.354V704.879h-2.46l.744-6.985.937.1a8.372,8.372,0,0,0,9.354-7.761l.085-1.8.536-11.409a20.946,20.946,0,0,0-10.542,2.805,16.258,16.258,0,0,1-5.182,1.9l-.159,1.961-.145,1.79a6.233,6.233,0,0,1-1.731,3.823l.8,1.075a5.832,5.832,0,0,0,3.818,2.265l3.11.459-.233,1.471-3.11-.459a7.389,7.389,0,0,1-4.836-2.87l-.723-.975a6.711,6.711,0,0,1-2.183.907l-.2-.853c-.017,0-.036.005-.053.009l-.541,4.855-.058.029-.973,9.138h.008a5.088,5.088,0,0,0-.03.525h-4.321Zm-1.078-26.19,6.027.634a3.17,3.17,0,0,1-3.259,1.861,3.122,3.122,0,0,1-2.769-2.495" transform="translate(-1461.534 -557.24)" fill="#c97440"/>
    <path id="Path_64329" data-name="Path 64329" d="M1696.458,895.026l3.308-4.866-15.625-9.943-7.7-4.9,5.813-12.075,4.751,14.062h23.852l.347-7.254,3.438,8.01h0a4.73,4.73,0,0,0,1.4,1.824h0l12.92,10.3,1.823-8.562-7.355-7.75L1712.3,839.05c.013.043.022.087.034.13-.007-.026-.018-.051-.026-.077-.02-.066-.037-.134-.06-.2s-.049-.132-.074-.2c-.017-.044-.033-.089-.051-.133-.011-.026-.024-.051-.035-.077-.024-.057-.045-.116-.071-.172s-.068-.139-.1-.208c-.021-.041-.04-.082-.062-.122-.011-.021-.024-.04-.035-.06-.028-.052-.053-.1-.083-.156-.045-.078-.095-.154-.143-.231-.022-.034-.043-.068-.065-.1-.01-.014-.021-.027-.03-.041-.032-.047-.061-.1-.094-.141-.061-.085-.127-.167-.192-.25l-.065-.082-.024-.027c-.034-.041-.067-.084-.1-.125-.075-.086-.155-.169-.235-.251l-.07-.073-.029-.026c-.035-.035-.068-.071-.1-.1-.083-.079-.171-.154-.259-.229-.029-.024-.057-.05-.087-.075s-.034-.025-.05-.038c-.033-.026-.064-.055-.1-.081-.084-.065-.171-.126-.259-.187-.038-.027-.074-.055-.113-.081s-.062-.037-.092-.056-.056-.039-.085-.057c-.077-.048-.157-.094-.237-.14-.048-.028-.094-.058-.144-.084s-.1-.046-.146-.071l-.068-.036c-.034-.016-.064-.036-.1-.052s-.082-.033-.123-.051-.1-.051-.158-.073-.117-.042-.175-.064l-.055-.023c-.08-.031-.161-.059-.242-.086-.051-.017-.1-.037-.151-.053s-.112-.027-.168-.043l-.047-.014q-.149-.041-.3-.075c-.046-.01-.09-.025-.137-.034s-.1-.013-.144-.022l-.037-.007q-.183-.032-.367-.054c-.043-.005-.084-.014-.127-.019s-.081,0-.121-.006l-.02,0q-.206-.016-.413-.02h-.009c-.044,0-.087-.007-.132-.007h-1.331V845.96L1686.5,834.485h-.865c-.012,0-.026.007-.038.007a6.782,6.782,0,0,0-3.963,1.283,6.437,6.437,0,0,0-2.167,2.726l-.007,0-15.446,36.731h0a5.284,5.284,0,0,0-.418,2.057,5.462,5.462,0,0,0,3.354,4.992l0,0,11.415,4.931.926.4Zm15.971-55.509c.022.1.041.2.059.3,0-.013-.006-.026-.009-.039-.016-.086-.031-.172-.051-.257m.115.645c.01.091.019.182.026.273-.007-.091-.015-.182-.026-.273m.045.9c0-.081,0-.162,0-.243,0,.037.006.072.006.109s-.006.088-.007.133" transform="translate(-1359.252 -686.846)" fill="#ffbc45"/>
    <path id="Path_64330" data-name="Path 64330" d="M1848.468,1156.316l.006-.011a2.6,2.6,0,0,0,.756.21l6.117.656a3.564,3.564,0,0,0,3.965-3.068,3.5,3.5,0,0,0-3.173-3.834,3.713,3.713,0,0,0-1.179.065v0l-4.947,1.069-3.5-2.227-3.308,4.866Z" transform="translate(-1505.995 -945.859)" fill="#c97440"/>
    <path id="Path_64331" data-name="Path 64331" d="M1977.761,1209.126h0Z" transform="translate(-1602.812 -995.205)" fill="#b3a4f5"/>
    <path id="Path_64332" data-name="Path 64332" d="M449.925,1209.126H157.944v4.96h418.6v-4.96H449.925Z" transform="translate(-129.049 -995.205)" fill="#b3a4f5"/>
    <path id="Path_64333" data-name="Path 64333" d="M1897.2,1209.126h0Z" transform="translate(-1538.32 -995.205)" fill="#b3a4f5"/>
    <path id="Path_64334" data-name="Path 64334" d="M1194.768,1237.163h0Z" transform="translate(-900.941 -1018.282)" fill="#f8f7ff"/>
    <rect id="Rectangle_24082" data-name="Rectangle 24082" width="92.098" height="0.992" transform="translate(201.729 218.385)" fill="#40327a"/>
    <path id="Path_64335" data-name="Path 64335" d="M927.225,1237.163h0Z" transform="translate(-738.085 -1018.282)" fill="#f8f7ff"/>
    <rect id="Rectangle_24083" data-name="Rectangle 24083" width="23.876" height="0.992" transform="translate(165.264 218.385)" fill="#40327a"/>
    <path id="Path_64336" data-name="Path 64336" d="M1060.647,1237.163h0Z" transform="translate(-863.476 -1018.282)" fill="#f8f7ff"/>
    <rect id="Rectangle_24084" data-name="Rectangle 24084" width="3.831" height="0.992" transform="translate(193.34 218.385)" fill="#40327a"/>
    <path id="Path_64337" data-name="Path 64337" d="M1815.8,1237.163h0Z" transform="translate(-1432.498 -1018.282)" fill="#f8f7ff"/>
    <rect id="Rectangle_24085" data-name="Rectangle 24085" width="62.554" height="0.992" transform="translate(320.749 218.385)" fill="#40327a"/>
    <rect id="Rectangle_24086" data-name="Rectangle 24086" width="159.169" height="4.96" transform="translate(313.754 224.218)" fill="#d5eaff"/>
    <rect id="Rectangle_24087" data-name="Rectangle 24087" width="11.544" height="4.96" transform="translate(297.727 224.218)" fill="#d5eaff"/>
    <rect id="Rectangle_24088" data-name="Rectangle 24088" width="18.479" height="2.48" transform="translate(67.313 234.138)" fill="#d5eaff"/>
    <rect id="Rectangle_24089" data-name="Rectangle 24089" width="2.675" height="2.48" transform="translate(89.807 234.138)" fill="#d5eaff"/>
    <rect id="Rectangle_24090" data-name="Rectangle 24090" width="61.52" height="2.48" transform="translate(97.739 234.138)" fill="#d5eaff"/>
    <rect id="Rectangle_24091" data-name="Rectangle 24091" width="96.879" height="2.48" transform="translate(166.118 234.138)" fill="#d5eaff"/>
    <rect id="Rectangle_24092" data-name="Rectangle 24092" width="130.569" height="2.48" transform="translate(266.429 234.138)" fill="#d5eaff"/>
    <rect id="Rectangle_24093" data-name="Rectangle 24093" width="2.996" height="2.48" transform="translate(403.415 234.138)" fill="#d5eaff"/>
    <rect id="Rectangle_24094" data-name="Rectangle 24094" width="46.675" height="4.96" transform="translate(247.983 224.218)" fill="#d5eaff"/>
    <rect id="Rectangle_24095" data-name="Rectangle 24095" width="102.319" height="4.96" transform="translate(140.387 224.218)" fill="#d5eaff"/>
    <rect id="Rectangle_24096" data-name="Rectangle 24096" width="14.54" height="4.96" transform="translate(121.417 224.218)" fill="#d5eaff"/>
    <rect id="Rectangle_24097" data-name="Rectangle 24097" width="4.385" height="4.96" transform="translate(114.138 224.218)" fill="#d5eaff"/>
    <rect id="Rectangle_24098" data-name="Rectangle 24098" width="35.127" height="4.96" transform="translate(76.959 224.218)" fill="#d5eaff"/>
    <rect id="Rectangle_24099" data-name="Rectangle 24099" width="71.839" height="4.96" transform="translate(0 224.218)" fill="#d5eaff"/>
    <path id="Path_64338" data-name="Path 64338" d="M673.144,1081.9h0l.112,1.506Z" transform="translate(-549.994 -890.486)" fill="#ff95a9"/>
    <path id="Path_64339" data-name="Path 64339" d="M592.59,1081.419l0-.006c.183-.072.363-.151.541-.238l-.406-5.538-1.022.071-.2-2.73-7.958-1.652h0l-9.045,6.507,2.108,9.894Z" transform="translate(-469.393 -881.785)" fill="#c97440"/>
    <path id="Path_64340" data-name="Path 64340" d="M631.893,868.9l-1.642-22.111,1.023-.071,1.664,22.4h0L631.3,846.756h27.556L671.075,861.4l2.2,2.636.707.848,2.273-1.252,10.925-6.02-1.805-3.021-15.636-26.2h0l-.012-.019h0l-.027-.045h0a10.075,10.075,0,0,0-4.328-3.923,10.484,10.484,0,0,0-4.54-1.02v-.011H655.3a6.592,6.592,0,0,1-4.792,6.2,6.826,6.826,0,0,1-8.474-4.347c-.027-.087-.044-.174-.068-.261l-.008,0-.434-1.6h-.936v.009a10.429,10.429,0,0,0-6.3,2.09,9.818,9.818,0,0,0-3.778,6.086l-.012,0-6.56,35.685h0Z" transform="translate(-509.789 -677.708)" fill="#fab841"/>
    <path id="Path_64341" data-name="Path 64341" d="M691.752,955.492H664.2l1.638,22.364.111,1.507.069.935h0l.406,5.538.833,11.37h5.34a3.957,3.957,0,0,1,.138-7.9l6.457-.424,5.186-2.859,19.6-10.793v-5.084Z" transform="translate(-542.684 -786.445)" fill="#ffbc45"/>
    <path id="Path_64342" data-name="Path 64342" d="M708.2,1142.613l6.581-2.152-13.371,4.373-5.608,1.837-6.7,2.379v0a4.225,4.225,0,0,1-1.006.222h5.686v3.158H682.162v.016h36.49l0-12.2-10.123,3.31Z" transform="translate(-557.363 -938.509)" fill="#ffd259"/>
    <path id="Path_64343" data-name="Path 64343" d="M874.244,851.653h0l-.012-.02h0l.012.019" transform="translate(-714.295 -700.96)" fill="#ffc359"/>
    <path id="Path_64344" data-name="Path 64344" d="M830.14,824.467a10.074,10.074,0,0,1,4.328,3.923,10.074,10.074,0,0,0-4.328-3.923,10.483,10.483,0,0,0-4.54-1.02,10.483,10.483,0,0,1,4.54,1.02" transform="translate(-674.56 -677.761)" fill="#ffc359"/>
    <path id="Path_64345" data-name="Path 64345" d="M744.575,1022.714l.005,0-3.478-5.828-10.925,6.019-2.273,1.252-2.906,1.6-19.6,10.793-5.186,2.859-6.456.425a3.957,3.957,0,0,0-.138,7.9h.827a4.206,4.206,0,0,0,1.006-.221v0l6.7-2.379,5.608-1.838,13.371-4.372,8.711-2.849,10.925-3.573,0,0a6.948,6.948,0,0,0,3.445-2.462,6.577,6.577,0,0,0,.366-7.324" transform="translate(-563.712 -836.973)" fill="#c97440"/>
    <path id="Path_64346" data-name="Path 64346" d="M831.072,1128.224l-6.581,2.152.329.94,10.122-3.31,5.169-1.691-.329-.94Z" transform="translate(-673.654 -926.272)" fill="#fff"/>
    <path id="Path_64347" data-name="Path 64347" d="M716.989,759.471l.008,0c.023.087.041.174.068.261a6.826,6.826,0,0,0,8.473,4.347,6.592,6.592,0,0,0,4.793-6.2,6.355,6.355,0,0,0-.23-1.732l.008,0L728.03,748.5l-1.048-3.852a7.182,7.182,0,0,1-1.789-.853l-.812,1.087c-.136.182-.282.354-.434.523l.109.961a7.44,7.44,0,0,1-1.2,4.951,7.953,7.953,0,0,1-5.832,3.515l-1.264.134.792,2.91Z" transform="translate(-584.817 -612.201)" fill="#c97440"/>
    <path id="Path_64348" data-name="Path 64348" d="M619.807,1191.26H591.622l.673,3.158h27.513Z" transform="translate(-483.387 -980.5)" fill="#40327a"/>
    <path id="Path_64349" data-name="Path 64349" d="M551.027,1033.415l-2.107-9.894-3.873-18.182h-1.854v0l7.678,36.049h1.855v0l-.673-3.158Z" transform="translate(-443.819 -827.473)" fill="#fff"/>
    <path id="Path_64350" data-name="Path 64350" d="M312.654,1005.368l0,.72-51.616-.226,3.955,18.561-.5.1,1.866,8.757,53.98,8.137Zm-21.5,21.7a4.885,4.885,0,0,1-4.595-3.684,2.939,2.939,0,0,1,3.025-3.684,4.885,4.885,0,0,1,4.594,3.684,2.939,2.939,0,0,1-3.025,3.684" transform="translate(-213.279 -827.496)" fill="#b3a4f5"/>
    <path id="Path_64351" data-name="Path 64351" d="M290.107,1163.132l.044.205,1.687,7.932h52.249Z" transform="translate(-237.033 -957.349)" fill="#ddd6ff"/>
    <path id="Path_64352" data-name="Path 64352" d="M403.222,1086.392a2.939,2.939,0,0,0-3.025,3.684,4.885,4.885,0,0,0,4.594,3.685,2.939,2.939,0,0,0,3.025-3.685,4.885,4.885,0,0,0-4.594-3.684" transform="translate(-326.917 -894.185)" fill="#fff"/>
    <path id="Path_64353" data-name="Path 64353" d="M672.931,579.271h0a11.219,11.219,0,0,1,8.224,2.439,10.976,10.976,0,0,1,1.63,1.636,10.4,10.4,0,0,1,2.3,5.765l.138,1.793a5.962,5.962,0,0,0-4.712,6.215l.337,4.371a6.078,6.078,0,0,0,6.581,5.48,6.389,6.389,0,0,0,1.006-.161,5.96,5.96,0,0,0,4.66-6.2l-.337-4.371a5.951,5.951,0,0,0-3.7-5.01,6.248,6.248,0,0,0-1.79-.449l-.14-1.812a12.424,12.424,0,0,0-.587-2.927,12.561,12.561,0,0,0-4.069-5.848,13.307,13.307,0,0,0-9.75-2.891l.1.987-.1-.987a13.214,13.214,0,0,0-8.636,4.347l3.427-.362a11.283,11.283,0,0,1,5.418-2.011m18.341,17.379.224,2.9a3.991,3.991,0,0,1-3.765,4.229,4.039,4.039,0,0,1-4.373-3.642l-.224-2.9a3.991,3.991,0,0,1,3.766-4.229,4.039,4.039,0,0,1,4.373,3.641" transform="translate(-542.594 -475.105)" fill="#b3a4f5"/>
    <path id="Path_64354" data-name="Path 64354" d="M758.612,735.623l.1.9.317-.425q-.221-.228-.419-.474" transform="translate(-619.827 -605.475)" fill="#ff95a9"/>
    <path id="Path_64355" data-name="Path 64355" d="M662.871,660.2a3.227,3.227,0,0,0,2.932-3.475l-1.292-11.431a8.385,8.385,0,0,1-5.811,3.252l-9.113.964a10.234,10.234,0,0,0-.248,2.954l.155,2.471.416,6.636Z" transform="translate(-530.53 -531.128)" fill="#c97440"/>
    <path id="Path_64356" data-name="Path 64356" d="M787.416,629.935l.14,1.812a6.259,6.259,0,0,1,1.79.449,10.228,10.228,0,0,0-2.516-5.188,12.416,12.416,0,0,1,.587,2.927" transform="translate(-642.882 -516.076)" fill="#40327a"/>
    <path id="Path_64357" data-name="Path 64357" d="M641.481,628a7.442,7.442,0,0,0,1.2-4.951l-.109-.961a7.986,7.986,0,0,1-4.782,2.546l-4.247.612-.227-1.472,4.247-.611a6.4,6.4,0,0,0,4.2-2.468l.569-.763-.1-.9q.2.246.419.474a6.952,6.952,0,0,0,1.173.972,7.181,7.181,0,0,0,1.789.853l1.048,3.852a3.677,3.677,0,0,0,2.551-3.261l.075-1.333a6.367,6.367,0,0,1-1.006.161,6.078,6.078,0,0,1-6.581-5.48l-.337-4.371a5.963,5.963,0,0,1,4.713-6.215l-.139-1.793a10.4,10.4,0,0,0-2.3-5.764,11.011,11.011,0,0,0-4.949-.882,4.028,4.028,0,0,0-6.983-.47,4.05,4.05,0,0,0-2.837-.767l-.493.052h-.011l-3.426.362-1.351.143h-.007l-.3.032a4.05,4.05,0,0,0-1.3.366,5.748,5.748,0,0,0-3.687,5.549,6.344,6.344,0,0,0-2.08,5.423,6.6,6.6,0,0,0,6.2,5.754l-.155-2.471a10.221,10.221,0,0,1,.248-2.953l9.112-.964a8.386,8.386,0,0,0,5.811-3.252l1.292,11.43a3.227,3.227,0,0,1-2.932,3.475l-12.96,1.371h0l.588,9.429a3.937,3.937,0,0,0,4.4,3.588l6.578-.7,1.265-.134A7.952,7.952,0,0,0,641.481,628M627.94,624.35a2.979,2.979,0,0,1-3.29-2.6l5.975-.585a2.93,2.93,0,0,1-2.685,3.182" transform="translate(-503.439 -488.887)"/>
    <path id="Path_64358" data-name="Path 64358" d="M662.555,748.268a2.979,2.979,0,0,0,3.29,2.6,2.931,2.931,0,0,0,2.685-3.182Z" transform="translate(-541.343 -615.401)" fill="#fff"/>
    <path id="Path_64359" data-name="Path 64359" d="M719.237,738.3l-.318.425-.569.763a6.4,6.4,0,0,1-4.2,2.468l-4.247.612.227,1.472,4.247-.612a7.987,7.987,0,0,0,4.782-2.546c.152-.168.3-.341.434-.523l.812-1.087a6.962,6.962,0,0,1-1.172-.971" transform="translate(-580.033 -607.681)" fill="#fff"/>
    <path id="Path_64360" data-name="Path 64360" d="M771.917,666.361a3.992,3.992,0,0,0-3.766,4.229l.225,2.9a4.039,4.039,0,0,0,4.373,3.642,3.991,3.991,0,0,0,3.765-4.229l-.224-2.9a4.039,4.039,0,0,0-4.373-3.641" transform="translate(-627.612 -548.458)" fill="#fff"/>
    <path id="Path_64361" data-name="Path 64361" d="M661.254,979.2l-.112-1.507-1.664-22.4-1.023.071,1.642,22.111.2,2.73,1.022-.071h0Z" transform="translate(-537.994 -786.279)" fill="#fff"/>
    <path id="Path_64362" data-name="Path 64362" d="M255.407,1003.518l51.616.226,0-.72v-.272l-52.881-.231,4.21,19.759.5-.1.5-.1Z" transform="translate(-207.652 -825.153)" fill="#7760db"/>
    <path id="Path_64363" data-name="Path 64363" d="M1164.479,436.71c.144-.183.288-.365.447-.539a9.511,9.511,0,0,1,1.427-1.27q.4-.288.813-.53a9.526,9.526,0,0,1,.847-.439,9.692,9.692,0,0,1,1.772-.611,9.844,9.844,0,0,1,2.307-.261l.006-.009h4.864c0-.023,0-.045,0-.069a7.665,7.665,0,0,1,.061-.924h-.061v-2.868l-9.922-3.252a6.017,6.017,0,0,1-4.213-5.683v-1.047a7.627,7.627,0,0,0,1.539-.769v1.816a4.525,4.525,0,0,0,3.169,4.274l9.428,3.09v-2.325a17.235,17.235,0,0,0,8.1,1.984v-.992a16.14,16.14,0,0,1-8.1-2.14v-.026a15.175,15.175,0,0,1-7.666-12.551l-.2-5.542a31.513,31.513,0,0,0,17.785-6.015,20.926,20.926,0,0,1,12.339-4h2.185l-.571,15.558a15.174,15.174,0,0,1-7.666,12.551v7.938h-.061a7.64,7.64,0,0,1,.061.924c0,.023,0,.045,0,.069h4.864l.006.009a9.826,9.826,0,0,1,3.042.475l.532.018c0,.057-.007.115-.01.172a9.651,9.651,0,0,1,2.177,1.176q.4.288.753.606a9.293,9.293,0,0,1,1.12,1.2l.007-.005,12.978,16.507.482.024-8.772-33.554a7.67,7.67,0,0,0,4.76-1.9l-.693-.731c-.03.026-.062.048-.092.074q-.135.116-.278.224c-.056.043-.111.086-.168.126-.1.071-.2.138-.3.2-.054.034-.107.071-.162.1-.153.09-.309.176-.469.254-.053.026-.109.048-.164.073-.113.051-.227.1-.344.147-.071.028-.144.052-.216.077-.1.036-.208.071-.314.1-.075.022-.15.042-.225.062q-.164.042-.33.075c-.073.015-.145.03-.218.042-.123.021-.248.036-.374.051-.062.007-.123.016-.186.021-.188.016-.377.025-.569.025a6.424,6.424,0,0,1-6.529-6.314v-10.76a6.337,6.337,0,0,1,4.473-5.99,21.8,21.8,0,0,0-5.184-11.73v-.133h-.119a23.3,23.3,0,0,0-17.572-7.884c-11.835,0-21.58,8.636-22.875,19.747a6.337,6.337,0,0,1,4.473,5.99v10.76a6.425,6.425,0,0,1-6.529,6.314c-.195,0-.388-.01-.579-.027-.068-.006-.134-.015-.2-.023-.122-.014-.243-.03-.364-.051-.082-.014-.162-.03-.243-.047q-.155-.033-.308-.073c-.086-.022-.171-.044-.255-.07s-.194-.064-.289-.1-.165-.056-.246-.088c-.16-.064-.317-.134-.471-.209-.075-.037-.147-.079-.221-.119-.093-.05-.186-.1-.276-.155-.07-.043-.139-.087-.208-.133q-.143-.094-.281-.195c-.058-.043-.116-.085-.173-.13-.115-.09-.226-.185-.335-.283-.026-.023-.053-.043-.079-.067l-.711.715a7.643,7.643,0,0,0,4.926,2.027l-8.772,33.553.448-.022,12.979-16.509Z" transform="translate(-940.467 -309.39)"/>
    <path id="Path_64364" data-name="Path 64364" d="M1358.656,768.321a9.061,9.061,0,0,1-.886-2,9.061,9.061,0,0,0,.886,2" transform="translate(-1109.372 -630.738)" fill="#ffd259"/>
    <path id="Path_64365" data-name="Path 64365" d="M1245.566,700.485a9.724,9.724,0,0,0-1.773.611,9.724,9.724,0,0,1,1.773-.611" transform="translate(-1016.246 -576.554)" fill="#ffd259"/>
    <path id="Path_64366" data-name="Path 64366" d="M1226.917,708.223a9.513,9.513,0,0,1,1.427-1.27,9.669,9.669,0,0,1,.813-.53,9.669,9.669,0,0,0-.813.53,9.513,9.513,0,0,0-1.427,1.27" transform="translate(-1002.458 -581.441)" fill="#ffd259"/>
    <path id="Path_64367" data-name="Path 64367" d="M1044.86,945.161l-10.619-8.679-4.016,5.109.008.006a7.623,7.623,0,0,0,.564,10.13l-.006,0,14.069,14.4Z" transform="translate(-840.4 -770.798)" fill="#c97440"/>
    <path id="Path_108794" data-name="Path 108794" d="M0,0,19.384.314,19.4,1.328.016,1.014Z" transform="translate(196.191 161.05) rotate(-52.74)" fill="#7760db"/>
    <path id="Path_64368" data-name="Path 64368" d="M1070.171,749.659V732.628h34.244v-.5h1.341v.5h5.386v-.5h38.787v17.947l11.133-9.1L1150.858,728l-6.985-8.885L1130.9,702.611l-.007.005a9.311,9.311,0,0,0-1.12-1.2q-.357-.318-.753-.606a9.649,9.649,0,0,0-2.177-1.175,15.732,15.732,0,0,1-4.515,10.25,16.511,16.511,0,0,1-3.563,2.76,16.79,16.79,0,0,1-8.453,2.257,16.56,16.56,0,0,1-15.631-10.749l.968-.327a15.535,15.535,0,0,0,14.663,10.084,15.728,15.728,0,0,0,7.928-2.117,15.483,15.483,0,0,0,3.342-2.589,14.756,14.756,0,0,0,4.245-9.776l.493.017a9.833,9.833,0,0,0-3.041-.475l-.006-.009a12.6,12.6,0,0,1-9.159,11.918,9.067,9.067,0,0,0,.886,2,9.067,9.067,0,0,1-.886-2,13.37,13.37,0,0,1-3.8.549,12.758,12.758,0,0,1-12.962-12.467l-.006.009a9.864,9.864,0,0,0-2.307.261,9.718,9.718,0,0,0-1.773.611q-.431.2-.847.439t-.813.53a9.514,9.514,0,0,0-1.427,1.27c-.159.174-.3.356-.446.539l-.007-.005-12.979,16.509L1069.754,728l-10.2,12.976Z" transform="translate(-865.711 -575.296)" fill="#ffbc45"/>
    <path id="Path_64369" data-name="Path 64369" d="M1568.135,951.728a7.624,7.624,0,0,0,.564-10.13l.009-.006-4.016-5.109-11.133,9.1v21.071l14.583-14.921Z" transform="translate(-1269.342 -770.798)" fill="#c97440"/>
    <path id="Path_64370" data-name="Path 64370" d="M1273.754,526.574a7.638,7.638,0,0,0-.061-.924h.061v-7.938a15.175,15.175,0,0,0,7.666-12.551l.571-15.558H1279.8a20.926,20.926,0,0,0-12.339,4,31.513,31.513,0,0,1-17.785,6.015l.2,5.542a15.176,15.176,0,0,0,7.666,12.551v.026a16.139,16.139,0,0,0,8.1,2.14v.992a17.232,17.232,0,0,1-8.1-1.984v2.325l3.089,1.013-.494,1.409-2.595-.85v2.868h.061a7.663,7.663,0,0,0-.061.924c0,.023,0,.045,0,.069h-4.865a12.758,12.758,0,0,0,12.962,12.467,13.362,13.362,0,0,0,3.8-.55,12.6,12.6,0,0,0,9.159-11.917h-4.864c0-.023,0-.045,0-.069m-11.88-14.553h7.557a4.1,4.1,0,0,1-7.557,0" transform="translate(-1021.057 -402.982)" fill="#c97440"/>
    <path id="Path_64371" data-name="Path 64371" d="M1320.108,618.82a4.044,4.044,0,0,0,3.779-2.507h-7.557a4.043,4.043,0,0,0,3.778,2.507" transform="translate(-1075.513 -507.273)" fill="#fff"/>
    <path id="Path_64372" data-name="Path 64372" d="M1232.161,627.974l.494-1.409-3.089-1.013-9.428-3.09a4.524,4.524,0,0,1-3.169-4.274v-1.816a7.618,7.618,0,0,1-1.539.769v1.047a6.017,6.017,0,0,0,4.214,5.683l9.922,3.252Z" transform="translate(-993.073 -507.322)" fill="#fff"/>
    <path id="Path_64373" data-name="Path 64373" d="M1163.477,399.3c.091.067.185.132.28.195.069.045.137.09.208.133.09.055.183.105.276.155.074.04.146.082.221.119q.231.113.47.209c.081.032.164.059.246.088s.192.068.289.1.17.047.255.07c.1.027.2.051.309.073.08.017.161.033.243.047.12.021.241.037.364.051.067.008.134.017.2.023.191.016.384.027.579.027a6.425,6.425,0,0,0,6.53-6.314v-10.76a6.337,6.337,0,0,0-4.474-5.99,6.706,6.706,0,0,0-1.947-.319c1.459-12,12.031-21.338,24.822-21.338,12.437,0,22.779,8.829,24.684,20.346a7.867,7.867,0,0,1,2.107.234c-1.819-12.728-13.136-22.564-26.79-22.564-14.029,0-25.6,10.382-26.923,23.618a6.433,6.433,0,0,0-4.187,3.973,22.253,22.253,0,0,0,0,14.84,6.285,6.285,0,0,0,1.73,2.576c.108.1.22.192.334.283.057.045.115.087.173.13m.377-15.981a2.294,2.294,0,0,1,4.519.467v8.76a2.294,2.294,0,0,1-4.519.467,22.2,22.2,0,0,1,0-9.694" transform="translate(-947.755 -291.275)" fill="#b3a4f5"/>
    <path id="Path_64374" data-name="Path 64374" d="M1181.061,523.608a2.249,2.249,0,0,0,2.285-2.21v-8.76a2.294,2.294,0,0,0-4.519-.467,22.21,22.21,0,0,0,0,9.694,2.269,2.269,0,0,0,2.234,1.743" transform="translate(-962.729 -420.122)" fill="#efedff"/>
    <path id="Path_64375" data-name="Path 64375" d="M1505.767,588.417h0a6.067,6.067,0,0,1-.252.6c-.012.025-.019.051-.031.076l.927.426a7.193,7.193,0,0,0,.328-.779q.208-.589.384-1.189l-.987-.271c-.009.029-.02.058-.028.086-.1.351-.216.7-.339,1.049v0" transform="translate(-1230.062 -483.375)" fill="#40327a"/>
    <path id="Path_64376" data-name="Path 64376" d="M1468.44,480.086a7.684,7.684,0,0,0-.775.061l.138.983c.033,0,.067,0,.1-.008.127-.015.256-.023.385-.031.092,0,.182-.012.274-.013.042,0,.083-.006.125-.006a6.69,6.69,0,0,1,3.055.738l.025.014c.172.089.339.186.5.289l.11.07c.172.114.341.234.5.364l.659-.76a7.67,7.67,0,0,0-2.993-1.467,7.868,7.868,0,0,0-2.106-.234" transform="translate(-1199.162 -395.145)" fill="#40327a"/>
    <path id="Path_64377" data-name="Path 64377" d="M1447.677,486.717q-.244-.155-.5-.289l-.025-.014a6.69,6.69,0,0,0-3.055-.738c-.043,0-.083.005-.126.006-.092,0-.183.008-.274.013-.129.008-.258.016-.385.03a6.678,6.678,0,0,0-1.272.275,6.337,6.337,0,0,0-4.473,5.99v10.76a6.425,6.425,0,0,0,6.529,6.314c.191,0,.381-.01.569-.026.062-.005.123-.014.185-.021.126-.014.25-.03.374-.051.073-.012.145-.027.218-.042.111-.022.221-.047.33-.075.076-.02.151-.04.225-.062.106-.031.21-.066.314-.1.072-.025.145-.049.216-.077.117-.045.23-.1.343-.147.054-.025.11-.047.164-.073.16-.078.316-.163.469-.253.055-.033.108-.069.162-.1.1-.065.206-.132.3-.2.057-.041.113-.084.169-.127q.142-.108.278-.224a6.318,6.318,0,0,0,1.607-2.091,6.22,6.22,0,0,0,.252-.6h0v0c.122-.347.234-.7.339-1.049a22.244,22.244,0,0,0-.34-13.788,6.3,6.3,0,0,0-1.986-2.8c-.16-.13-.329-.249-.5-.364l-.109-.07m-.018,14.775a2.294,2.294,0,0,1-4.519-.467v-8.76a2.294,2.294,0,0,1,4.519-.467,22.2,22.2,0,0,1,0,9.694" transform="translate(-1174.57 -399.75)" fill="#b3a4f5"/>
    <path id="Path_64378" data-name="Path 64378" d="M1472.558,512.17h0a2.294,2.294,0,0,0-4.519.467v8.76a2.294,2.294,0,0,0,4.519.467,22.2,22.2,0,0,0,0-9.694" transform="translate(-1199.468 -420.121)" fill="#efedff"/>
    <path id="Path_64379" data-name="Path 64379" d="M1283.181,701.614l-.493-.017a14.756,14.756,0,0,1-4.246,9.776,15.47,15.47,0,0,1-3.343,2.589,15.724,15.724,0,0,1-7.928,2.117,15.536,15.536,0,0,1-14.663-10.084l-.968.328a16.561,16.561,0,0,0,15.631,10.749,16.778,16.778,0,0,0,8.453-2.257,16.491,16.491,0,0,0,3.563-2.759,15.738,15.738,0,0,0,4.515-10.25c0-.058.008-.115.01-.173Z" transform="translate(-1022.577 -577.469)" fill="#fff"/>
    <path id="Path_64380" data-name="Path 64380" d="M1200.91,976.264V940.423L1123.2,952.137v35.84h.007Zm-38.6-21.337a4.751,4.751,0,1,1-4.91,4.748,4.831,4.831,0,0,1,4.91-4.748" transform="translate(-917.719 -774.042)" fill="#c4b8ff"/>
    <path id="Path_64381" data-name="Path 64381" d="M1315.052,1031.9a4.751,4.751,0,1,0-4.91-4.748,4.831,4.831,0,0,0,4.91,4.748" transform="translate(-1070.457 -841.518)" fill="#fff"/>
    <path id="Path_64382" data-name="Path 64382" d="M1200.9,1149.356V1143l-77.7,11.713h78.213v-5.36Z" transform="translate(-917.713 -940.78)" fill="#ddd6ff"/>
    <path id="Path_64383" data-name="Path 64383" d="M1157.763,889.772h-1.341v-.5H1123.2v20.763l77.706-11.714v-8.553h-37.761v-.5h-5.386Z" transform="translate(-917.719 -731.944)" fill="#b3a4f5"/>
    <path id="Path_64384" data-name="Path 64384" d="M1380.331,904.419V886.472h-38.787v.992h37.761v50.747h1.026V904.419Z" transform="translate(-1096.115 -729.636)" fill="#624ac9"/>
    <path id="Path_64385" data-name="Path 64385" d="M1306.117,887.465v-.992h-1.341v.992Z" transform="translate(-1066.073 -729.637)" fill="#624ac9"/>
    <path id="Path_64386" data-name="Path 64386" d="M1118.623,910.039V889.277H1117.6v45.515h1.026Z" transform="translate(-913.138 -731.944)" fill="#f8f7ff"/>
    <rect id="Rectangle_24101" data-name="Rectangle 24101" width="1.909" height="0.992" transform="translate(335.073 89.906)" fill="#b3a4f5"/>
    <path id="Path_64387" data-name="Path 64387" d="M1909.056,377.393H1885.1V376.4h23.961c12.751,0,23.125-10.032,23.125-22.363a21.663,21.663,0,0,0-.762-5.705l.992-.253a22.616,22.616,0,0,1,.8,5.959c0,12.879-10.834,23.356-24.151,23.356" transform="translate(-1540.226 -286.496)" fill="#0b437b"/>
    <path id="Path_64388" data-name="Path 64388" d="M1566.4,293.486h-1.026V273.106c0-12.878,10.834-23.355,24.151-23.355h58.3a24.185,24.185,0,0,1,20.663,11.275l-.877.514a23.16,23.16,0,0,0-19.786-10.8h-58.3c-12.751,0-23.125,10.032-23.125,22.363Z" transform="translate(-1278.992 -205.564)" fill="#0b437b"/>
    <path id="Path_64389" data-name="Path 64389" d="M1661.568,266.573h-58.3c-11.638,0-21.073,9.124-21.073,20.379v20.379h79.376c11.638,0,21.073-9.124,21.073-20.379s-9.435-20.379-21.073-20.379" transform="translate(-1292.737 -219.41)" fill="#d5eaff"/>
    <path id="Path_64390" data-name="Path 64390" d="M2257.9,649.348A11.012,11.012,0,1,1,2246.89,638.7a10.83,10.83,0,0,1,11.006,10.643" transform="translate(-1826.839 -525.704)" fill="#fff"/>
    <path id="Path_64391" data-name="Path 64391" d="M2207.219,628.62c-10.966,0-19.888-8.628-19.888-19.233s8.922-19.233,19.888-19.233,19.888,8.628,19.888,19.233-8.922,19.233-19.888,19.233m0-21.287a2.055,2.055,0,1,0,2.123,2.053,2.092,2.092,0,0,0-2.123-2.053" transform="translate(-1787.168 -485.742)" fill="#fff"/>
    <path id="Path_64392" data-name="Path 64392" d="M2212.808,592.291l-.874-.521c5.005-7.84,5.221-17.438.592-26.333a21.661,21.661,0,0,0-9.845-9.422,28.689,28.689,0,0,0-21.752-1.742,26.289,26.289,0,0,0-15.192,13.037l-.924-.432a27.312,27.312,0,0,1,15.783-13.543,29.725,29.725,0,0,1,22.54,1.791,22.667,22.667,0,0,1,10.307,9.865c4.792,9.21,4.561,19.161-.634,27.3" transform="translate(-1768.77 -454.25)" fill="#7760db"/>
    <path id="Path_64393" data-name="Path 64393" d="M2217.7,595.294c0,12.631-10.589,22.871-23.65,22.871s-23.65-10.24-23.65-22.871,10.589-22.871,23.65-22.871,23.65,10.24,23.65,22.871" transform="translate(-1773.331 -471.148)" fill="#ffccd6"/>
    <path id="Path_64394" data-name="Path 64394" d="M2206.511,580.776c0,14.355-12.033,25.992-26.877,25.992s-26.877-11.637-26.877-25.992,12.033-25.992,26.877-25.992,26.877,11.637,26.877,25.992" transform="translate(-1758.919 -456.63)" fill="#fff"/>
    <path id="Path_64395" data-name="Path 64395" d="M2212.808,592.291l-.874-.521c5.005-7.84,5.221-17.438.592-26.333a21.661,21.661,0,0,0-9.845-9.422,28.689,28.689,0,0,0-21.752-1.742,26.289,26.289,0,0,0-15.192,13.037l-.924-.432a27.312,27.312,0,0,1,15.783-13.543,29.725,29.725,0,0,1,22.54,1.791,22.667,22.667,0,0,1,10.307,9.865c4.792,9.21,4.561,19.161-.634,27.3" transform="translate(-1768.77 -454.25)" fill="#0b437b"/>
    <path id="Path_64396" data-name="Path 64396" d="M2177.343,728.185c-15.1,0-27.39-11.882-27.39-26.488h1.026c0,14.058,11.827,25.5,26.364,25.5a27.2,27.2,0,0,0,7.816-1.139l.3.948a28.262,28.262,0,0,1-8.12,1.184" transform="translate(-1756.628 -577.551)" fill="#0b437b"/>
    <path id="Path_64397" data-name="Path 64397" d="M2402.186,782.663l-.724-.7a25.812,25.812,0,0,0,3.827-4.674l.873.521a26.749,26.749,0,0,1-3.976,4.855" transform="translate(-1962.125 -639.768)" fill="#0b437b"/>
    <path id="Path_64398" data-name="Path 64398" d="M2279.635,622.354a19.658,19.658,0,0,0,.8-5.578c0-11.21-9.4-20.3-20.994-20.3a21.641,21.641,0,0,0-5.75.771,19.84,19.84,0,0,1,8.412-1.849c10.738,0,19.446,8.421,19.446,18.809a18.218,18.218,0,0,1-1.916,8.149" transform="translate(-1841.39 -490.057)" fill="#ff95a9"/>
    <path id="Path_64399" data-name="Path 64399" d="M2231.147,621.79a19.675,19.675,0,0,1-.8,5.578l0,0a19.512,19.512,0,0,1-17.527,10.652c-10.741,0-19.449-8.421-19.449-18.8a18.774,18.774,0,0,1,11.019-16.953.077.077,0,0,1,.018-.007,21.651,21.651,0,0,1,5.75-.771c11.6,0,20.994,9.092,20.994,20.3" transform="translate(-1792.1 -495.071)" fill="#f5cdb3"/>
    <path id="Path_64400" data-name="Path 64400" d="M2233.063,620.867h-6.078l-6.531-13.933,6.375-2.8,3.8,8.112a111.524,111.524,0,0,1,27.25-24.311l3.885,5.631c-18.993,12.254-27.594,25.554-27.678,25.687Z" transform="translate(-1814.232 -483.919)" fill="#fff"/>
    <path id="Path_64401" data-name="Path 64401" d="M406.107,76.028a10.863,10.863,0,0,0,2.579,4.406l-1.535,2.524,5.608,3.194,1.535-2.524a11.641,11.641,0,0,0,5.238.044l1.49,2.549,5.665-3.1-1.493-2.549a10.844,10.844,0,0,0,2.659-4.362l3.025.026.057-6.293-3.025-.026a10.878,10.878,0,0,0-2.583-4.406l1.535-2.524-5.608-3.194-1.535,2.523a11.635,11.635,0,0,0-5.234-.044l-1.493-2.546-5.661,3.1,1.49,2.549a10.953,10.953,0,0,0-2.659,4.362l-3.025-.022-.057,6.292Zm5.943-3.095a4.959,4.959,0,1,1,4.914,4.834,4.88,4.88,0,0,1-4.914-4.834" transform="translate(-329.337 -49.159)" fill="#d5eaff"/>
    <path id="Path_64402" data-name="Path 64402" d="M559.819,168.84l-3.567,3.39,6.088,5.992,3.567-3.395a20.4,20.4,0,0,0,6.474,2.661l-.042,4.834,8.679.068.042-4.835A20.327,20.327,0,0,0,587.58,175l3.505,3.449,6.191-5.882-3.505-3.449a19.093,19.093,0,0,0,2.752-6.261l5,.041.071-8.4-5-.041a18.976,18.976,0,0,0-2.638-6.306l3.567-3.39-6.083-5.987-3.571,3.39a20.283,20.283,0,0,0-6.469-2.657l.042-4.834-8.684-.073-.042,4.834a20.382,20.382,0,0,0-6.521,2.552l-3.506-3.449-6.191,5.887L560,147.88a18.945,18.945,0,0,0-2.747,6.261l-5-.041-.076,8.393,5,.046a18.959,18.959,0,0,0,2.639,6.3m8.274-10.412a8.8,8.8,0,1,1,8.721,8.58,8.657,8.657,0,0,1-8.721-8.58" transform="translate(-451.162 -110.791)" fill="#d5eaff"/>
    <path id="Path_64403" data-name="Path 64403" d="M1039.9,86.4l2.033,4.863,5.411.367L1043.186,95l1.311,5.09-4.6-2.779-4.6,2.779L1036.6,95l-4.154-3.373,5.411-.367Z" transform="translate(-843.568 -71.113)" fill="#723d43"/>
    <path id="Path_64404" data-name="Path 64404" d="M1135.29,86.4l2.034,4.863,5.411.367L1138.58,95l1.311,5.09-4.6-2.779-4.6,2.779L1132,95l-4.154-3.373,5.411-.367Z" transform="translate(-921.511 -71.113)" fill="#723d43"/>
    <path id="Path_64405" data-name="Path 64405" d="M1230.685,86.4l2.033,4.863,5.411.367L1233.974,95l1.311,5.09-4.6-2.779-4.6,2.779,1.311-5.09-4.154-3.373,5.411-.367Z" transform="translate(-999.454 -71.113)" fill="#723d43"/>
    <path id="Path_64406" data-name="Path 64406" d="M1326.079,86.4l2.033,4.863,5.411.367L1329.369,95l1.311,5.09-4.6-2.779-4.6,2.779,1.311-5.09-4.154-3.373,5.411-.367Z" transform="translate(-1077.396 -71.113)" fill="#723d43"/>
    <path id="Path_64407" data-name="Path 64407" d="M1421.474,86.4l2.034,4.863,5.411.367L1424.764,95l1.311,5.09-4.6-2.779-4.6,2.779,1.311-5.09-4.154-3.373,5.411-.367Z" transform="translate(-1155.339 -71.113)" fill="#723d43"/>
    <path id="Path_64408" data-name="Path 64408" d="M1191.949,77.546h-70.278v-.992h70.278a12.036,12.036,0,1,0,0-24.058h-12.28V51.5h12.28a13.028,13.028,0,1,1,0,26.042" transform="translate(-916.466 -42.391)" fill="#0b437b"/>
    <path id="Path_64409" data-name="Path 64409" d="M972.152,77.546H961.916a13.028,13.028,0,1,1,0-26.042h73.941V52.5H961.916a12.036,12.036,0,1,0,0,24.058h10.236Z" transform="translate(-774.937 -42.391)" fill="#0b437b"/>
    <path id="Path_64410" data-name="Path 64410" d="M1917.055,363.569a4.208,4.208,0,1,0,4.2-3.91,4.061,4.061,0,0,0-4.2,3.91" transform="translate(-1566.338 -296.027)" fill="#fff"/>
    <path id="Path_64411" data-name="Path 64411" d="M1833.781,363.569a4.208,4.208,0,1,0,4.2-3.91,4.061,4.061,0,0,0-4.2,3.91" transform="translate(-1498.299 -296.027)" fill="#fff"/>
    <path id="Path_64412" data-name="Path 64412" d="M1750.508,363.569a4.208,4.208,0,1,0,4.2-3.91,4.061,4.061,0,0,0-4.2,3.91" transform="translate(-1430.26 -296.027)" fill="#fff"/>
    <rect id="Rectangle_24102" data-name="Rectangle 24102" width="1.026" height="2.782" transform="translate(172.017 84.726)" fill="#ccc2ff"/>
    <rect id="Rectangle_24103" data-name="Rectangle 24103" width="1.026" height="2.783" transform="translate(172.017 101.422)" fill="#ccc2ff"/>
    <path id="Path_108795" data-name="Path 108795" d="M0,0,1.017.015l.041,2.806L.041,2.806Z" transform="translate(167.051 86.279) rotate(-30.002)" fill="#ccc2ff"/>
    <path id="Path_108796" data-name="Path 108796" d="M0,0,1.017.015l.041,2.806L.041,2.806Z" transform="translate(175.683 100.738) rotate(-30.002)" fill="#ccc2ff"/>
    <path id="Path_108797" data-name="Path 108797" d="M0,0,1,.015l.041,2.854-1-.015Z" transform="translate(163.552 90.025) rotate(-60)" fill="#ccc2ff"/>
    <path id="Path_108798" data-name="Path 108798" d="M0,0,1,.015l.041,2.854-1-.015Z" transform="translate(178.504 98.373) rotate(-60)" fill="#ccc2ff"/>
    <rect id="Rectangle_24108" data-name="Rectangle 24108" width="2.877" height="0.992" transform="translate(162.459 93.969)" fill="#ccc2ff"/>
    <rect id="Rectangle_24109" data-name="Rectangle 24109" width="2.877" height="0.992" transform="translate(179.724 93.969)" fill="#ccc2ff"/>
    <path id="Path_108799" data-name="Path 108799" d="M0,0,2.854.041l.015,1L.015,1Z" transform="translate(163.552 98.905) rotate(-29.998)" fill="#ccc2ff"/>
    <path id="Path_108800" data-name="Path 108800" d="M0,0,2.854.041l.015,1L.015,1Z" transform="translate(178.504 90.557) rotate(-29.998)" fill="#ccc2ff"/>
    <path id="Path_108801" data-name="Path 108801" d="M0,0,2.806.041l.015,1.017L.015,1.017Z" transform="matrix(0.5, -0.866, 0.866, 0.5, 167.051, 102.652)" fill="#ccc2ff"/>
    <path id="Path_108802" data-name="Path 108802" d="M0,0,2.806.041l.015,1.017L.015,1.017Z" transform="matrix(0.5, -0.866, 0.866, 0.5, 175.683, 88.193)" fill="#ccc2ff"/>
    <path id="Path_64413" data-name="Path 64413" d="M1731.453,15.6h-1.026a7.44,7.44,0,0,0-7.553-7.3V7.3a7.44,7.44,0,0,0,7.553-7.3h1.026a7.44,7.44,0,0,0,7.553,7.3v.992a7.44,7.44,0,0,0-7.553,7.3M1725.8,7.8a5.145,5.145,0,0,0,10.285,0,8.487,8.487,0,0,1-5.142-4.973A8.487,8.487,0,0,1,1725.8,7.8" transform="translate(-1407.682 0.004)" fill="#d5eaff"/>
    <rect id="Rectangle_24114" data-name="Rectangle 24114" width="6.497" height="0.992" transform="translate(94.49 152.629)" fill="#ccc2ff"/>
    <rect id="Rectangle_24115" data-name="Rectangle 24115" width="1.026" height="6.283" transform="translate(97.226 149.984)" fill="#d5eaff"/>
    <path id="Path_64414" data-name="Path 64414" d="M2070.214,840.335a5.408,5.408,0,1,1,5.588-5.4,5.505,5.505,0,0,1-5.588,5.4m0-9.817a4.415,4.415,0,1,0,4.563,4.413,4.495,4.495,0,0,0-4.563-4.413" transform="translate(-1686.911 -682.765)" fill="#ccc2ff"/>
    <path id="Path_64415" data-name="Path 64415" d="M1569.386,187.692l-4.176-4.373a15.954,15.954,0,0,0,1.312-1.318l4.676,3.871a22.116,22.116,0,0,1-1.812,1.82" transform="translate(-1278.862 -149.8)" fill="#d5eaff"/>
    <path id="Path_64416" data-name="Path 64416" d="M1282.241,37.532l-5.051-3.4a15.035,15.035,0,0,0,2.867-8.836c0-8.547-7.191-15.5-16.029-15.5H1209.89V3.84h54.139c12.233,0,22.184,9.624,22.184,21.454a20.827,20.827,0,0,1-3.971,12.238" transform="translate(-988.546 -3.16)" fill="#d5eaff"/>
    <rect id="Rectangle_24116" data-name="Rectangle 24116" width="17.72" height="5.953" transform="translate(200.882 0.68)" fill="#d5eaff"/>
    <path id="Path_64417" data-name="Path 64417" d="M1001.937,46.747H922.972c-12.232,0-22.184-9.624-22.184-21.454S910.74,3.84,922.972,3.84h7.064V9.792h-7.064c-8.838,0-16.029,6.954-16.029,15.5s7.191,15.5,16.029,15.5h78.965Z" transform="translate(-735.993 -3.16)" fill="#d5eaff"/>
    <path id="Path_64418" data-name="Path 64418" d="M1470.832,215.2H1463v-5.952h7.833a16.465,16.465,0,0,0,4.922-.747l1.895,5.663a22.794,22.794,0,0,1-6.816,1.036" transform="translate(-1195.349 -171.608)" fill="#d5eaff"/>
  </g>
</svg>
