<svg id="Icon" xmlns="http://www.w3.org/2000/svg" width="51.6" height="36" viewBox="0 0 51.6 36">
  <path id="Path_56478" data-name="Path 56478" d="M15.35,16.3a12.112,12.112,0,0,1,9.577,11.967A12.022,12.022,0,0,1,13.089,40.455,12.022,12.022,0,0,1,1.25,28.267c0-8.965,2.934-14.534,6.377-18.014A20.324,20.324,0,0,1,19.5,4.46a1.724,1.724,0,0,1,1.638.909,1.826,1.826,0,0,1-.1,1.911s-3.137,4.547-5.093,7.911c-.2.353-.41.742-.6,1.109Z" transform="translate(26.672 -4.455)" fill="#dff2f2" fill-rule="evenodd"/>
  <path id="Path_56479" data-name="Path 56479" d="M26.632,16.3a12.112,12.112,0,0,1,9.577,11.967A12.022,12.022,0,0,1,24.371,40.455,12.022,12.022,0,0,1,12.532,28.267c0-8.965,2.934-14.534,6.377-18.014A20.324,20.324,0,0,1,30.782,4.46a1.724,1.724,0,0,1,1.638.909,1.831,1.831,0,0,1-.1,1.911s-3.137,4.547-5.093,7.911c-.2.353-.41.742-.6,1.109Z" transform="translate(-12.532 -4.455)" fill="#dff2f2" fill-rule="evenodd"/>
</svg>
