<svg xmlns="http://www.w3.org/2000/svg" width="44" height="44" viewBox="0 0 44 44">
  <g id="Group_62831" data-name="Group 62831" transform="translate(-1223.555 -503.556)">
    <g id="Path_108666" data-name="Path 108666" transform="translate(1223.555 503.555)" fill="#005da9">
      <path d="M 22 43.75 C 19.06365966796875 43.75 16.21528053283691 43.17496871948242 13.53400039672852 42.04087829589844 C 10.94404983520508 40.94543075561523 8.617989540100098 39.37714004516602 6.620429992675781 37.37957000732422 C 4.622869968414307 35.38201141357422 3.054579973220825 33.05595016479492 1.959120035171509 30.46600914001465 C 0.8250300288200378 27.78471946716309 0.25 24.93634033203125 0.25 22 C 0.25 19.06365966796875 0.8250300288200378 16.21528053283691 1.959120035171509 13.53400039672852 C 3.054579973220825 10.94404983520508 4.622869968414307 8.617989540100098 6.620429992675781 6.620429992675781 C 8.617989540100098 4.622869968414307 10.94404983520508 3.054579973220825 13.53400039672852 1.959120035171509 C 16.21528053283691 0.8250300288200378 19.06365966796875 0.25 22 0.25 C 24.93634033203125 0.25 27.78471946716309 0.8250300288200378 30.46600914001465 1.959120035171509 C 33.05595016479492 3.054579973220825 35.38201141357422 4.622869968414307 37.37957000732422 6.620429992675781 C 39.37714004516602 8.617989540100098 40.94543075561523 10.94404983520508 42.04087829589844 13.53400039672852 C 43.17496871948242 16.21528053283691 43.75 19.06365966796875 43.75 22 C 43.75 24.93634033203125 43.17496871948242 27.78471946716309 42.04087829589844 30.46600914001465 C 40.94543075561523 33.05595016479492 39.37714004516602 35.38201141357422 37.37957000732422 37.37957000732422 C 35.38201141357422 39.37714004516602 33.05595016479492 40.94543075561523 30.46600914001465 42.04087829589844 C 27.78471946716309 43.17496871948242 24.93634033203125 43.75 22 43.75 Z" stroke="none"/>
      <path d="M 22 0.5 C 19.09729957580566 0.5 16.28169059753418 1.068389892578125 13.63138008117676 2.189369201660156 C 11.07123947143555 3.272220611572266 8.771888732910156 4.822521209716797 6.797199249267578 6.797199249267578 C 4.822521209716797 8.771888732910156 3.272220611572266 11.07123947143555 2.189369201660156 13.63138008117676 C 1.068389892578125 16.28169059753418 0.5 19.09729957580566 0.5 22 C 0.5 24.90270042419434 1.068389892578125 27.71830940246582 2.189369201660156 30.36861038208008 C 3.272220611572266 32.92876052856445 4.822521209716797 35.22811126708984 6.797199249267578 37.20278930664062 C 8.771888732910156 39.1774787902832 11.07123947143555 40.72777938842773 13.63138008117676 41.81063079833984 C 16.28169059753418 42.93161010742188 19.09729957580566 43.5 22 43.5 C 24.90270042419434 43.5 27.71830940246582 42.93161010742188 30.36861038208008 41.81063079833984 C 32.92876052856445 40.72777938842773 35.22811126708984 39.1774787902832 37.20278930664062 37.20278930664062 C 39.1774787902832 35.22811126708984 40.72777938842773 32.92876052856445 41.81063079833984 30.36861038208008 C 42.93161010742188 27.71830940246582 43.5 24.90270042419434 43.5 22 C 43.5 19.09729957580566 42.93161010742188 16.28169059753418 41.81063079833984 13.63138008117676 C 40.72777938842773 11.07123947143555 39.1774787902832 8.771888732910156 37.20278930664062 6.797199249267578 C 35.22811126708984 4.822521209716797 32.92876052856445 3.272220611572266 30.36861038208008 2.189369201660156 C 27.71830940246582 1.068389892578125 24.90270042419434 0.5 22 0.5 M 22 0 C 34.15026092529297 0 44 9.8497314453125 44 22 C 44 34.15026092529297 34.15026092529297 44 22 44 C 9.8497314453125 44 0 34.15026092529297 0 22 C 0 9.8497314453125 9.8497314453125 0 22 0 Z" stroke="none" fill="#fff"/>
    </g>
    <path id="Path_64159" data-name="Path 64159" d="M9.9,8.47,6.752,5.108l.829-.886L12.144,9.1,7.582,13.972l-.829-.886L9.9,9.724H1V8.47Z" transform="translate(1238.984 516.458)" fill="#fff"/>
  </g>
</svg>
