<svg xmlns="http://www.w3.org/2000/svg" width="13.115" height="13.115" viewBox="0 0 13.115 13.115">
  <g id="_7-Check" data-name="7-Check" transform="translate(0 0)">
    <path id="Path_91315" data-name="Path 91315" d="M33.39,43.746a1.365,1.365,0,0,0-1.232.8,1.432,1.432,0,0,0,.175,1.486L35.806,50.4a1.227,1.227,0,0,0,1.037.472,1.326,1.326,0,0,0,1.045-.635L45.1,38.317l0-.006a.391.391,0,0,0-.094-.451.377.377,0,0,0-.557.04l-.008.01-7.275,8.432a.31.31,0,0,1-.448.025l-2.414-2.254a1.342,1.342,0,0,0-.919-.367Z" transform="translate(-32.027 -37.756)" fill="#045c5d"/>
  </g>
</svg>
