<svg xmlns="http://www.w3.org/2000/svg" width="392.579" height="63.275" viewBox="0 0 392.579 63.275">
  <path id="Union_111" data-name="Union 111" d="M13653.333,16699.861v-16.5a34.4,34.4,0,0,0,8.358,4.473,24.641,24.641,0,0,0,8.522,1.7,8.412,8.412,0,0,0,4.619-1.068,3.5,3.5,0,0,0,1.639-3.131,4.248,4.248,0,0,0-.817-2.582,8.122,8.122,0,0,0-2.478-2.08,46.654,46.654,0,0,0-6.153-2.641q-14.531-5.59-14.529-18.059a16.875,16.875,0,0,1,6.636-13.963q6.634-5.227,17.8-5.229,3.149,0,5.8.252t4.809.629q2.156.384,6.065,1.43v15.324a31.026,31.026,0,0,0-14.948-4.158,9.242,9.242,0,0,0-4.871,1.137,3.483,3.483,0,0,0-1.849,3.105,3.906,3.906,0,0,0,1.492,3.133,28.067,28.067,0,0,0,6.233,3.211q9.369,3.779,13.251,8.27a15.786,15.786,0,0,1,3.886,10.668,17.383,17.383,0,0,1-3.216,10.455,19.026,19.026,0,0,1-9.008,6.637,39.614,39.614,0,0,1-13.938,2.184A45.6,45.6,0,0,1,13653.333,16699.861Zm-89.024-.486a25.136,25.136,0,0,1-10.643-10.455,32.352,32.352,0,0,1-3.673-15.645,34.456,34.456,0,0,1,4.112-16.965,28.468,28.468,0,0,1,11.633-11.48,35.854,35.854,0,0,1,17.3-4.055,60.213,60.213,0,0,1,15.116,1.887v16.76a21.089,21.089,0,0,0-6-2.352,29.863,29.863,0,0,0-7.055-.844q-7.389,0-11.653,4.242t-4.264,11.508q0,7.225,4.264,11.4t11.4,4.174a29.582,29.582,0,0,0,13.31-3.357v16.168a50.9,50.9,0,0,1-17.258,2.688A35.164,35.164,0,0,1,13564.309,16699.375Zm-258.251.486v-16.5a34.415,34.415,0,0,0,8.358,4.473,24.646,24.646,0,0,0,8.522,1.7,8.412,8.412,0,0,0,4.619-1.068,3.5,3.5,0,0,0,1.64-3.131,4.248,4.248,0,0,0-.817-2.582,8.134,8.134,0,0,0-2.478-2.08,46.623,46.623,0,0,0-6.154-2.641q-14.531-5.59-14.528-18.059a16.872,16.872,0,0,1,6.636-13.963q6.633-5.227,17.8-5.229,3.151,0,5.793.252t4.813.629q2.156.384,6.065,1.43v15.324a31.035,31.035,0,0,0-14.948-4.158,9.242,9.242,0,0,0-4.871,1.137,3.483,3.483,0,0,0-1.849,3.105,3.906,3.906,0,0,0,1.492,3.133,28.114,28.114,0,0,0,6.233,3.211q9.363,3.779,13.251,8.27a15.778,15.778,0,0,1,3.882,10.668,17.386,17.386,0,0,1-3.211,10.455,19.029,19.029,0,0,1-9.009,6.637,39.617,39.617,0,0,1-13.942,2.184A45.594,45.594,0,0,1,13306.058,16699.861Zm301.466,2.137v-60.217h37.5v14.193h-19.358v8.779h18.18v14.193h-18.18v8.857h20.745V16702Zm-84.152,0v-60.217h18.138V16702Zm-46.447,0-19.441-60.217h19.525l9.2,37.082a41.3,41.3,0,0,1,1.22,6.721h.42a46.184,46.184,0,0,1,1.3-6.977l8.945-36.826h18.9l-19.693,60.217Zm-41.361,0-4.493-12.973a16.207,16.207,0,0,0-3.379-6.008,6.175,6.175,0,0,0-4.515-2.18h-.713V16702h-18.143v-60.217h24.1q12.639,0,18.667,4.139t6.023,12.408a15.7,15.7,0,0,1-3.5,10.416q-3.508,4.2-10.437,6.086v.168a14.574,14.574,0,0,1,6.363,3.824,23.618,23.618,0,0,1,4.557,7.852l5.923,15.324Zm-9.825-33.883a8.32,8.32,0,0,0,5.877-2.062,6.735,6.735,0,0,0,2.226-5.16,6.327,6.327,0,0,0-1.845-4.791q-1.849-1.761-5.8-1.762h-3.735v13.775Zm-68.869,33.883v-60.217h37.5v14.193h-19.358v8.779h18.185v14.193h-18.185v8.857h20.741V16702Z" transform="translate(-13304.72 -16640.275)" fill="rgba(255,255,255,0)" stroke="#005da9" stroke-width="1" opacity="0.2"/>
</svg>
