<svg xmlns="http://www.w3.org/2000/svg" xmlns:xlink="http://www.w3.org/1999/xlink" width="18" height="18" viewBox="0 0 18 18">
  <defs>
    <clipPath id="clip-path">
      <rect id="Rectangle_29642" data-name="Rectangle 29642" width="18" height="18" rx="9" transform="translate(1500 -9104)" fill="#fff"/>
    </clipPath>
    <linearGradient id="linear-gradient" x1="0.103" y1="1.032" x2="0.879" y2="0.071" gradientUnits="objectBoundingBox">
      <stop offset="0" stop-color="#fee411"/>
      <stop offset="0.052" stop-color="#fedb16"/>
      <stop offset="0.138" stop-color="#fec125"/>
      <stop offset="0.248" stop-color="#fe983d"/>
      <stop offset="0.376" stop-color="#fe5f5e"/>
      <stop offset="0.5" stop-color="#fe2181"/>
      <stop offset="1" stop-color="#9000dc"/>
    </linearGradient>
  </defs>
  <g id="Mask_Group_60591" data-name="Mask Group 60591" transform="translate(-1500 9104)" clip-path="url(#clip-path)">
    <g id="Group_62715" data-name="Group 62715" transform="translate(1498.875 -9105.125)">
      <g id="Group_50114" data-name="Group 50114" transform="translate(0 0)">
        <rect id="Rectangle_21100" data-name="Rectangle 21100" width="20" height="20" transform="translate(0.125 0.125)" fill="url(#linear-gradient)"/>
        <g id="Group_50113" data-name="Group 50113" transform="translate(4.495 4.49)">
          <g id="Group_50112" data-name="Group 50112" transform="translate(0)">
            <path id="Path_85057" data-name="Path 85057" d="M138.74,131h-4.225a3.417,3.417,0,0,0-3.415,3.415v4.225a3.417,3.417,0,0,0,3.415,3.415h4.225a3.417,3.417,0,0,0,3.415-3.415v-4.225A3.417,3.417,0,0,0,138.74,131Zm2.181,7.645a2.188,2.188,0,0,1-2.185,2.185h-4.225a2.188,2.188,0,0,1-2.185-2.185V134.42a2.188,2.188,0,0,1,2.185-2.185h4.225a2.188,2.188,0,0,1,2.185,2.185Z" transform="translate(-131.1 -131)" fill="#fff"/>
            <path id="Path_85058" data-name="Path 85058" d="M194.927,192.1a2.827,2.827,0,1,0,2.827,2.827A2.827,2.827,0,0,0,194.927,192.1Zm0,4.543a1.716,1.716,0,1,1,1.716-1.716,1.716,1.716,0,0,1-1.716,1.716Z" transform="translate(-189.402 -189.397)" fill="#fff"/>
            <circle id="Ellipse_1034" data-name="Ellipse 1034" cx="0.478" cy="0.478" r="0.478" transform="matrix(0.987, -0.16, 0.16, 0.987, 7.943, 2.146)" fill="#fff"/>
          </g>
        </g>
      </g>
    </g>
  </g>
</svg>
