<svg xmlns="http://www.w3.org/2000/svg" width="30" height="32" viewBox="0 0 30 32">
  <g id="Group_62729" data-name="Group 62729" transform="translate(-17.756)">
    <g id="Group_62728" data-name="Group 62728" transform="translate(17.756)">
      <path id="Path_108586" data-name="Path 108586" d="M44.594,13.228h-.081V11.287a11.557,11.557,0,0,0-23.107,0v1.941H20.92a3.258,3.258,0,0,0-3.162,3.327v4.951a3.162,3.162,0,0,0,3.12,3.207h3.042a.759.759,0,0,0,.733-.787c0-.015,0-.03,0-.045v-9.7c0-.475-.284-.951-.73-.951h-.892V11.287a9.935,9.935,0,0,1,19.864,0v1.941H42c-.446,0-.73.475-.73.951v9.7a.757.757,0,0,0,.684.828l.046,0h.932l-.081.119a6.458,6.458,0,0,1-5.148,2.5,4.012,4.012,0,0,0-4.734-3.058,3.945,3.945,0,0,0-3.211,3.811A4.009,4.009,0,0,0,33.811,32a4.223,4.223,0,0,0,2.919-1.228,3.456,3.456,0,0,0,.973-1.9,8.093,8.093,0,0,0,6.446-3.129l.77-1.109A2.729,2.729,0,0,0,47.756,21.9V16.95C47.757,15.248,46.459,13.228,44.594,13.228Zm-21.567,9.9H20.92a1.561,1.561,0,0,1-1.542-1.582q0-.021,0-.042V16.554a1.656,1.656,0,0,1,1.54-1.743h2.108Zm12.527,6.535a2.418,2.418,0,0,1-1.743.753,2.446,2.446,0,0,1-2.432-2.337,2.392,2.392,0,0,1,4.784,0v0A2.072,2.072,0,0,1,35.554,29.663ZM46.135,21.9c0,1.069-1.054,1.228-1.54,1.228h-1.7V14.812h1.7c.892,0,1.54,1.228,1.54,2.139Z" transform="translate(-17.756)" fill="#045c5d"/>
    </g>
  </g>
</svg>
