<svg xmlns="http://www.w3.org/2000/svg" xmlns:xlink="http://www.w3.org/1999/xlink" width="213.001" height="40" viewBox="0 0 213.001 40">
  <defs>
    <linearGradient id="linear-gradient" x1="0.062" y1="0.258" x2="0.937" y2="0.742" gradientUnits="objectBoundingBox">
      <stop offset="0" stop-color="#1b6690"/>
      <stop offset="1" stop-color="#199696"/>
    </linearGradient>
  </defs>
  <g id="Group_62835" data-name="Group 62835" transform="translate(9875.001 15172)">
    <g id="Layer_x0020_1" transform="translate(-9875.001 -15172)">
      <g id="_2080976199760" transform="translate(0)">
        <path id="Path_1" data-name="Path 1" d="M7950.971,9758.91a20,20,0,1,1-20,20A20,20,0,0,1,7950.971,9758.91Z" transform="translate(-7930.97 -9758.91)" fill-rule="evenodd" fill="url(#linear-gradient)"/>
        <g id="Group_1" data-name="Group 1" transform="translate(10.688 5.739)">
          <path id="Path_2" data-name="Path 2" d="M9108.137,10380.7h7.309a2.016,2.016,0,0,1,2.01,2.011v7.029a9.063,9.063,0,0,1-9.041,9.038h-.277a9.064,9.064,0,0,1-9.039-9.038h0A9.067,9.067,0,0,1,9108.137,10380.7Zm.211,3.259a5.785,5.785,0,1,1-5.785,5.781A5.784,5.784,0,0,1,9108.348,10383.96Z" transform="translate(-9098.96 -10380.701)" fill="#fff" fill-rule="evenodd"/>
          <path id="Path_3" data-name="Path 3" d="M9093.515,12461.264a9.311,9.311,0,0,1-9.314-9.313v-.009l3.475.009a5.839,5.839,0,0,0,11.679,0v-.009h3.473v.009A9.311,9.311,0,0,1,9093.515,12461.264Z" transform="translate(-9084.2 -12432.742)" fill="#fff" fill-rule="evenodd"/>
          <path id="Path_4" data-name="Path 4" d="M9895.3,11163.716a1.848,1.848,0,1,1,1.848-1.85A1.85,1.85,0,0,1,9895.3,11163.716Z" transform="translate(-9885.988 -11152.803)" fill="#fff" fill-rule="evenodd"/>
        </g>
      </g>
    </g>
    <g id="Group_62834" data-name="Group 62834" transform="translate(-1)">
      <path id="Path_108667" data-name="Path 108667" d="M8330.129,17400.729v-8.785h1.017v7.875h4.364v.91Zm9.234.105a3.023,3.023,0,0,1-2.273-.863,3.209,3.209,0,0,1-.831-2.365,3.81,3.81,0,0,1,.358-1.705,2.844,2.844,0,0,1,1.033-1.141,2.976,2.976,0,0,1,1.52-.4,2.747,2.747,0,0,1,1.42.363,2.319,2.319,0,0,1,.89,1.043,3.724,3.724,0,0,1,.3,1.559v.381h-4.758v-.646h4.11l-.21.156a2.314,2.314,0,0,0-.44-1.527,1.524,1.524,0,0,0-1.312-.568,1.7,1.7,0,0,0-1.436.646,2.787,2.787,0,0,0-.514,1.764v.113a2.483,2.483,0,0,0,.574,1.766,2.112,2.112,0,0,0,1.6.609,3.25,3.25,0,0,0,1.034-.162,2.591,2.591,0,0,0,.925-.557l.346.709a2.954,2.954,0,0,1-1.023.613A3.985,3.985,0,0,1,8339.363,17400.834Zm6.271,0a2.6,2.6,0,0,1-1.431-.383,2.9,2.9,0,0,1-.945-1.107,4.143,4.143,0,0,1-.338-1.758,4.045,4.045,0,0,1,.338-1.738,2.7,2.7,0,0,1,.945-1.1,2.774,2.774,0,0,1,1.431-.387,2.344,2.344,0,0,1,1.439.438,1.965,1.965,0,0,1,.808,1.16h-.146l.133-1.488h.963c-.03.238-.049.488-.068.744s-.038.475-.038.705v4.813h-.989v-1.477h.133a2.029,2.029,0,0,1-.806,1.17A2.486,2.486,0,0,1,8345.635,17400.834Zm.2-.818a1.752,1.752,0,0,0,1.4-.617,2.728,2.728,0,0,0,.515-1.812,2.771,2.771,0,0,0-.515-1.812,1.908,1.908,0,0,0-2.788,0,2.8,2.8,0,0,0-.521,1.813,2.755,2.755,0,0,0,.521,1.813A1.761,1.761,0,0,0,8345.835,17400.016Zm7.146.818a2.552,2.552,0,0,1-1.422-.383,2.779,2.779,0,0,1-.95-1.107,4.218,4.218,0,0,1-.339-1.758,4.119,4.119,0,0,1,.339-1.738,2.6,2.6,0,0,1,.95-1.1,2.724,2.724,0,0,1,1.422-.387,2.383,2.383,0,0,1,1.438.438,2.1,2.1,0,0,1,.822,1.121h-.157v-4.363h1v9.176h-.984v-1.488h.138a1.964,1.964,0,0,1-.814,1.172A2.481,2.481,0,0,1,8352.98,17400.834Zm.214-.818a1.766,1.766,0,0,0,1.387-.617,2.713,2.713,0,0,0,.531-1.812,2.756,2.756,0,0,0-.531-1.812,1.9,1.9,0,0,0-2.779,0,2.739,2.739,0,0,0-.531,1.813,2.7,2.7,0,0,0,.531,1.813A1.758,1.758,0,0,0,8353.194,17400.016Zm8.115.713v-8.785h3.45a3.27,3.27,0,0,1,2.123.611,1.983,1.983,0,0,1,.754,1.686,2.062,2.062,0,0,1-.488,1.383,2.46,2.46,0,0,1-1.341.705v-.158a2.4,2.4,0,0,1,1.493.641,2.041,2.041,0,0,1,.549,1.484,2.27,2.27,0,0,1-.759,1.828,3.364,3.364,0,0,1-2.164.605Zm.989-.855h2.527a2.7,2.7,0,0,0,1.478-.348,1.41,1.41,0,0,0,.546-1.23,1.388,1.388,0,0,0-.546-1.238,2.6,2.6,0,0,0-1.478-.352H8362.3Zm0-4.006h2.32a2.476,2.476,0,0,0,1.509-.393,1.407,1.407,0,0,0,.491-1.16,1.392,1.392,0,0,0-.491-1.156,2.5,2.5,0,0,0-1.509-.4h-2.32Zm9.967,4.967a3.014,3.014,0,0,1-2.278-.863,3.2,3.2,0,0,1-.836-2.365,3.685,3.685,0,0,1,.368-1.705,2.69,2.69,0,0,1,1.026-1.141,2.95,2.95,0,0,1,1.521-.4,2.765,2.765,0,0,1,1.422.363,2.238,2.238,0,0,1,.88,1.043,3.659,3.659,0,0,1,.313,1.559v.381h-4.764v-.646h4.112l-.21.156a2.347,2.347,0,0,0-.441-1.527,1.526,1.526,0,0,0-1.312-.568,1.685,1.685,0,0,0-1.431.646,2.754,2.754,0,0,0-.521,1.764v.113a2.441,2.441,0,0,0,.58,1.766,2.1,2.1,0,0,0,1.592.609,3.33,3.33,0,0,0,1.042-.162,2.739,2.739,0,0,0,.922-.557l.344.709a2.95,2.95,0,0,1-1.021.613A3.967,3.967,0,0,1,8372.266,17400.834Zm3.6,2.719-.229-.828a7.338,7.338,0,0,0,.97-.318,2.3,2.3,0,0,0,.639-.486,3.081,3.081,0,0,0,.443-.74l.311-.729-.019.4-2.685-6.385h1.078l2.223,5.494h-.327l2.2-5.494h1.04l-2.838,6.783a4.928,4.928,0,0,1-.547,1.01,2.636,2.636,0,0,1-.635.65,3.087,3.087,0,0,1-.731.41A5.025,5.025,0,0,1,8375.87,17403.553Zm9.2-2.719a2.925,2.925,0,0,1-1.539-.383,2.8,2.8,0,0,1-1.008-1.107,3.942,3.942,0,0,1-.361-1.758,3.736,3.736,0,0,1,.361-1.719,2.618,2.618,0,0,1,1.008-1.123,3.285,3.285,0,0,1,3.093,0,2.6,2.6,0,0,1,1.009,1.123,3.639,3.639,0,0,1,.366,1.719,3.838,3.838,0,0,1-.366,1.758,2.786,2.786,0,0,1-1.009,1.107A2.952,2.952,0,0,1,8385.065,17400.834Zm0-.818a1.767,1.767,0,0,0,1.4-.617,2.8,2.8,0,0,0,.511-1.812,2.766,2.766,0,0,0-.523-1.812,1.745,1.745,0,0,0-1.391-.605,1.725,1.725,0,0,0-1.384.605,2.816,2.816,0,0,0-.512,1.813,2.772,2.772,0,0,0,.512,1.813A1.746,1.746,0,0,0,8385.065,17400.016Zm4.473.713v-4.812c0-.23-.013-.445-.028-.705s-.044-.506-.068-.744h.958l.117,1.381h-.142a2.068,2.068,0,0,1,.863-1.1,2.558,2.558,0,0,1,1.378-.387,2.182,2.182,0,0,1,1.647.6,2.64,2.64,0,0,1,.558,1.855v3.918h-1v-3.861a1.919,1.919,0,0,0-.352-1.279,1.33,1.33,0,0,0-1.078-.406,1.8,1.8,0,0,0-1.356.533,2.008,2.008,0,0,0-.508,1.436v3.578Zm9.507.105a2.541,2.541,0,0,1-1.42-.383,2.722,2.722,0,0,1-.948-1.107,4.189,4.189,0,0,1-.335-1.758,4.09,4.09,0,0,1,.335-1.738,2.546,2.546,0,0,1,.948-1.1,2.712,2.712,0,0,1,1.42-.387,2.376,2.376,0,0,1,1.443.438,2.054,2.054,0,0,1,.812,1.121h-.15v-4.363h.991v9.176h-.969v-1.488h.128a1.933,1.933,0,0,1-.81,1.172A2.443,2.443,0,0,1,8399.045,17400.834Zm.207-.818a1.768,1.768,0,0,0,1.4-.617,2.739,2.739,0,0,0,.53-1.812,2.783,2.783,0,0,0-.53-1.812,1.747,1.747,0,0,0-1.4-.605,1.71,1.71,0,0,0-1.384.605,2.755,2.755,0,0,0-.522,1.813,2.712,2.712,0,0,0,.522,1.813A1.731,1.731,0,0,0,8399.252,17400.016Zm4.623.713v-1.266h1.25v1.266Z" transform="translate(-18156.129 -32538.553)" fill="#1a1a1a"/>
      <path id="Path_108668" data-name="Path 108668" d="M1858.539,15380.194a4.8,4.8,0,0,1-.589,2.381,4.307,4.307,0,0,1-1.634,1.663,4.642,4.642,0,0,1-2.358.6h-4.1a4.638,4.638,0,0,1-2.357-.6,4.3,4.3,0,0,1-1.633-1.663,4.792,4.792,0,0,1-.59-2.381v-4.72a4.8,4.8,0,0,1,.59-2.375,4.258,4.258,0,0,1,1.633-1.661,4.631,4.631,0,0,1,2.357-.6h3.943a4.631,4.631,0,0,1,2.358.6,4.253,4.253,0,0,1,1.633,1.661,4.806,4.806,0,0,1,.59,2.375v.442h-2.494v-.442a2.02,2.02,0,0,0-.57-1.5,2.072,2.072,0,0,0-1.517-.559h-3.943a2.069,2.069,0,0,0-1.516.559,2.019,2.019,0,0,0-.571,1.5v4.72a2,2,0,0,0,.571,1.5,2.045,2.045,0,0,0,1.516.559h4.1a1.928,1.928,0,0,0,2.068-2.058v-.475h-4.445v-2.606h6.958Zm15.8,0a4.8,4.8,0,0,1-.59,2.381,4.3,4.3,0,0,1-1.633,1.663,4.6,4.6,0,0,1-2.339.6h-4.233a4.6,4.6,0,0,1-2.339-.6,4.305,4.305,0,0,1-1.634-1.663,4.8,4.8,0,0,1-.589-2.381v-9.358h2.493v9.358a1.928,1.928,0,0,0,2.068,2.058h4.233a1.928,1.928,0,0,0,2.068-2.058v-9.358h2.493Zm17.078-9.358a4.358,4.358,0,0,1,2.319.624,4.305,4.305,0,0,1,1.6,1.7,5.107,5.107,0,0,1,.58,2.444v4.477a5.1,5.1,0,0,1-.58,2.442,4.37,4.37,0,0,1-1.6,1.7,4.426,4.426,0,0,1-2.319.62h-8.834v-14Zm1.991,4.764a2.194,2.194,0,0,0-.541-1.56,1.868,1.868,0,0,0-1.449-.582H1885.1v8.758h6.321a1.885,1.885,0,0,0,1.449-.578,2.2,2.2,0,0,0,.541-1.562Zm13.753-4.764a4.6,4.6,0,0,1,2.339.6,4.26,4.26,0,0,1,1.633,1.661,4.809,4.809,0,0,1,.589,2.375v9.361h-2.493v-3.958h-8.369v3.958h-2.494v-9.361a4.81,4.81,0,0,1,.59-2.375,4.26,4.26,0,0,1,1.633-1.661,4.6,4.6,0,0,1,2.339-.6Zm2.068,4.639a1.928,1.928,0,0,0-2.068-2.061h-4.233a1.928,1.928,0,0,0-2.068,2.061v2.8h8.369Zm12.343-2.061v11.422h-2.494v-11.422h-5.431v-2.578h13.356v2.578Zm16.15-2.578a4.6,4.6,0,0,1,2.339.6,4.26,4.26,0,0,1,1.633,1.661,4.816,4.816,0,0,1,.59,2.375v9.361h-2.494v-3.958h-8.369v3.958h-2.494v-9.361a4.81,4.81,0,0,1,.589-2.375,4.263,4.263,0,0,1,1.633-1.661,4.6,4.6,0,0,1,2.339-.6h4.233Zm2.068,4.639a1.929,1.929,0,0,0-2.068-2.061h-4.234a1.928,1.928,0,0,0-2.068,2.061v2.8h8.369Zm9.5,9.361a4.6,4.6,0,0,1-2.339-.6,4.307,4.307,0,0,1-1.633-1.663,4.793,4.793,0,0,1-.59-2.381v-9.358h2.494v9.358a1.929,1.929,0,0,0,2.069,2.058h8.794v2.584Zm20.035-14a4.6,4.6,0,0,1,2.339.6,4.263,4.263,0,0,1,1.633,1.661,4.81,4.81,0,0,1,.59,2.375v4.72a4.8,4.8,0,0,1-.59,2.381,4.308,4.308,0,0,1-1.633,1.663,4.606,4.606,0,0,1-2.339.6H1965.1a4.6,4.6,0,0,1-2.339-.6,4.3,4.3,0,0,1-1.633-1.663,4.8,4.8,0,0,1-.589-2.381v-4.72a4.808,4.808,0,0,1,.589-2.375,4.26,4.26,0,0,1,1.633-1.661,4.6,4.6,0,0,1,2.339-.6Zm2.068,4.639a1.927,1.927,0,0,0-2.068-2.061H1965.1a1.928,1.928,0,0,0-2.068,2.061v4.72a1.928,1.928,0,0,0,2.068,2.058h4.233a1.927,1.927,0,0,0,2.068-2.058Zm18.2,4.72a4.8,4.8,0,0,1-.59,2.381,4.3,4.3,0,0,1-1.633,1.663,4.637,4.637,0,0,1-2.358.6h-4.1a4.638,4.638,0,0,1-2.358-.6,4.306,4.306,0,0,1-1.634-1.663,4.8,4.8,0,0,1-.589-2.381v-4.72a4.815,4.815,0,0,1,.589-2.375,4.261,4.261,0,0,1,1.634-1.661,4.631,4.631,0,0,1,2.358-.6h3.943a4.636,4.636,0,0,1,2.358.6,4.266,4.266,0,0,1,1.633,1.661,4.814,4.814,0,0,1,.589,2.375v.442h-2.493v-.442a2.022,2.022,0,0,0-.57-1.5,2.073,2.073,0,0,0-1.517-.559h-3.943a2.072,2.072,0,0,0-1.517.559,2.019,2.019,0,0,0-.571,1.5v4.72a2,2,0,0,0,.571,1.5,2.049,2.049,0,0,0,1.517.559h4.1a1.929,1.929,0,0,0,2.068-2.058v-.475h-4.446v-2.606h6.958Zm2.446,4.642v-14h2.493v14Zm18.238-4.642a4.794,4.794,0,0,1-.59,2.381,4.3,4.3,0,0,1-1.633,1.663,4.641,4.641,0,0,1-2.359.6h-4.136a4.642,4.642,0,0,1-2.358-.6,4.306,4.306,0,0,1-1.633-1.663,4.8,4.8,0,0,1-.59-2.381v-4.72a4.807,4.807,0,0,1,.59-2.375,4.262,4.262,0,0,1,1.633-1.661,4.635,4.635,0,0,1,2.358-.6h3.982a4.635,4.635,0,0,1,2.358.6,4.258,4.258,0,0,1,1.633,1.661,4.805,4.805,0,0,1,.59,2.375v.761h-2.493v-.761a2.019,2.019,0,0,0-.571-1.5,2.073,2.073,0,0,0-1.517-.559h-3.982a2.073,2.073,0,0,0-1.518.559,2.022,2.022,0,0,0-.569,1.5v4.72a2,2,0,0,0,.569,1.5,2.049,2.049,0,0,0,1.518.559h4.136a1.928,1.928,0,0,0,2.069-2.058v-1.081h2.513Z" transform="translate(-11671.279 -30539.836)" fill="#196c93"/>
    </g>
  </g>
</svg>
